<svg width="107" height="20" viewBox="0 0 107 20" fill="none" xmlns="http://www.w3.org/2000/svg">
<g clip-path="url(#clip0_358_768)">
<path d="M20 0H0V20H20V0Z" fill="#219653"/>
<path d="M41.6667 0H21.6667V20H41.6667V0Z" fill="#219653"/>
<path d="M63.3333 0H43.3333V20H63.3333V0Z" fill="#219653"/>
<path d="M85 0H65V20H85V0Z" fill="#219653"/>
<path d="M106.667 0H86.6667V20H106.667V0Z" fill="url(#paint0_linear_358_768)"/>
<path d="M9.99976 13.4789L13.0414 12.7081L14.3123 16.6248L9.99976 13.4789ZM16.9998 8.41642H11.6456L9.99976 3.37476L8.35392 8.41642H2.99976L7.33309 11.5414L5.68726 16.5831L10.0206 13.4581L12.6873 11.5414L16.9998 8.41642Z" fill="white"/>
<path d="M31.6665 13.4789L34.7082 12.7081L35.979 16.6248L31.6665 13.4789ZM38.6665 8.41642H33.3123L31.6665 3.37476L30.0207 8.41642H24.6665L28.9998 11.5414L27.354 16.5831L31.6873 13.4581L34.354 11.5414L38.6665 8.41642Z" fill="white"/>
<path d="M53.333 13.4789L56.3747 12.7081L57.6455 16.6248L53.333 13.4789ZM60.333 8.41642H54.9788L53.333 3.37476L51.6872 8.41642H46.333L50.6663 11.5414L49.0205 16.5831L53.3538 13.4581L56.0205 11.5414L60.333 8.41642Z" fill="white"/>
<path d="M74.9998 13.4789L78.0414 12.7081L79.3123 16.6248L74.9998 13.4789ZM81.9998 8.41642H76.6456L74.9998 3.37476L73.3539 8.41642H67.9998L72.3331 11.5414L70.6873 16.5831L75.0206 13.4581L77.6873 11.5414L81.9998 8.41642Z" fill="white"/>
<path d="M96.6665 13.4789L99.7082 12.7081L100.979 16.6248L96.6665 13.4789ZM103.667 8.41642H98.3123L96.6665 3.37476L95.0207 8.41642H89.6665L93.9998 11.5414L92.354 16.5831L96.6873 13.4581L99.354 11.5414L103.667 8.41642Z" fill="white"/>
</g>
<defs>
<linearGradient id="paint0_linear_358_768" x1="86.6667" y1="10" x2="106.667" y2="10" gradientUnits="userSpaceOnUse">
<stop stop-color="#219653"/>
<stop offset="0.5" stop-color="#219653"/>
<stop offset="0.5001" stop-color="#FF9398"/>
<stop offset="0.5002" stop-color="#D9D9D9"/>
<stop offset="0.9998" stop-color="#D9D9D9"/>
</linearGradient>
<clipPath id="clip0_358_768">
<rect width="106.667" height="20" fill="white"/>
</clipPath>
</defs>
</svg>
