<svg width="373" height="471" viewBox="0 0 373 471" fill="none" xmlns="http://www.w3.org/2000/svg">
<path d="M318.294 405.533C317.174 403.263 310.804 399.073 311.284 396.223C358.144 355.673 380.244 292.603 370.044 231.143C362.384 185.013 341.884 142.603 304.914 113.233L328.784 69.8831C329.714 69.1731 331.884 76.3731 332.334 76.9631C333.244 78.1631 334.314 78.0731 335.154 78.7731C337.274 80.5431 336.224 82.1231 340.914 81.2031C347.064 79.9931 352.084 75.4131 357.184 72.4031C362.904 69.0331 370.884 67.9031 370.774 59.2831C370.574 44.4631 344.984 28.3031 333.154 22.1731C316.694 13.6531 284.374 1.76306 266.474 8.41306C258.624 11.3231 257.734 16.5931 258.454 24.3631C258.824 28.3231 264.974 45.3031 267.424 48.1031C270.184 51.2431 271.354 49.7031 274.504 50.2831C275.874 50.5331 276.534 51.9331 278.344 51.9331C281.034 51.9331 284.284 48.0431 287.334 48.0831L267.934 90.1031C251.814 83.1931 235.034 77.6831 217.584 75.3131C216.574 67.1431 218.764 59.1131 219.184 51.0731C219.374 47.3831 220.034 42.3231 215.414 41.2331C210.734 40.1231 192.854 40.6331 187.304 41.0031C184.794 41.1631 181.224 41.7331 178.734 42.2431C173.624 43.2931 169.284 43.9931 168.544 50.0531C167.824 56.0631 169.544 65.9831 169.624 72.3431C169.634 73.0531 169.684 74.1331 169.064 74.5531C154.254 76.3531 139.564 79.6831 125.664 85.0231L105.784 45.3631C109.644 44.5131 113.054 48.3431 115.914 49.1331C121.654 50.7131 126.494 48.8131 129.344 43.5631C130.444 41.5331 130.544 39.2331 131.484 37.5231C133.594 33.6731 135.584 34.4831 136.254 28.1131C137.274 18.3631 134.404 4.77308 124.074 1.18308C111.004 -3.36692 81.1437 6.26308 68.5137 12.1831C53.6937 19.1231 29.4337 33.6931 21.9837 48.5131C17.9337 56.5531 17.4737 61.2331 24.2637 67.7231C28.8737 72.1231 31.9037 72.6331 37.0637 75.0931C38.0737 75.5731 39.5137 77.7431 40.6437 78.5931C45.5437 82.2931 51.8537 85.2031 56.1737 78.8831C57.7837 76.5131 57.4937 72.1431 59.1537 68.7731C59.6637 67.7231 63.7937 61.4531 64.8837 62.2531L86.7137 103.963C86.7137 104.853 85.8837 105.333 85.3337 105.853C81.5737 109.433 74.2837 113.563 69.8437 117.083C-6.26628 177.453 -22.8563 283.673 33.3737 363.883C47.5237 384.063 66.1037 400.723 86.6537 414.193C86.1637 415.613 85.5937 417.033 84.9937 418.423C82.4837 424.213 75.7637 433.753 74.4237 438.923C73.9737 440.643 73.9437 443.403 75.0237 444.893C76.3037 446.663 89.8837 451.563 93.0737 453.013C101.484 456.853 123.554 469.303 131.144 470.003C135.424 470.403 139.054 469.403 141.474 465.623C143.074 463.123 146.254 452.543 146.954 449.293C147.694 445.833 147.854 442.423 148.314 438.933C179.704 445.093 211.994 443.833 242.624 434.573C245.764 440.963 247.144 450.913 250.694 456.773C256.374 466.123 268.354 455.593 274.784 452.283C278.884 450.173 283.434 447.703 287.754 446.163C296.184 443.163 307.744 443.383 314.544 438.063C315.214 437.543 315.474 436.513 316.254 435.953C322.734 431.303 328.934 430.523 325.384 420.253C324.094 416.513 320.224 409.433 318.294 405.533ZM346.624 301.693C351.464 300.713 355.504 303.753 355.354 308.783C355.244 312.183 351.844 321.053 350.454 324.603C343.354 342.863 329.074 366.003 315.434 380.073C313.534 382.033 310.014 384.903 307.224 384.993C302.204 385.163 298.694 379.523 301.114 375.033C316.744 357.433 329.454 339.773 338.054 317.653C339.874 312.983 341.094 302.813 346.624 301.693ZM281.744 40.5831C280.084 41.2331 275.704 44.6831 274.864 44.1931C274.134 43.7731 268.504 29.8231 268.354 28.5831C267.724 23.1731 272.434 20.4631 276.964 19.4431C287.184 17.1531 316.204 28.4631 325.874 33.8131C334.544 38.6231 342.904 45.8531 346.254 55.4331C343.294 58.6931 340.504 62.8931 335.674 63.2931C332.304 58.1631 327.674 53.7331 322.734 50.0331C312.284 42.2131 294.504 35.5731 281.744 40.5831ZM288.934 65.3531C298.644 59.7131 310.024 67.7831 315.604 75.6931L298.234 108.043L275.884 93.6231L288.934 65.3531ZM184.024 57.3531C186.544 51.4331 201.464 53.0031 205.314 56.7731C207.634 59.0431 204.454 70.1431 205.014 73.7031H182.114C184.434 68.6631 181.974 62.1831 184.024 57.3531ZM59.1837 55.1831C55.5737 58.4931 52.3237 62.4231 50.6537 67.0931C49.1637 68.0231 45.7437 65.2131 44.8037 64.0831C39.8937 58.1731 42.1737 49.5631 46.2337 43.8631C55.1337 31.3631 91.7537 17.7131 106.874 14.5531C112.604 13.3531 119.814 11.2131 125.124 14.3031C126.194 19.3631 128.384 23.2331 127.464 28.6031C127.074 30.8831 121.914 40.4231 119.964 41.2931C115.604 39.1131 112.234 37.0131 107.164 36.6131C89.3437 35.2131 72.0337 43.4231 59.1837 55.1831ZM79.7137 72.7431C79.9837 66.1231 86.8337 59.8931 93.4737 60.1231C95.1637 60.1831 96.8437 61.2631 98.9737 61.2131C100.774 61.1531 101.964 60.1631 103.614 60.3031L117.234 88.4131L94.3237 99.6331L79.7137 72.7431ZM27.9637 215.853C17.6337 217.733 16.6437 203.143 24.9637 201.913C33.7537 200.613 36.1137 214.363 27.9637 215.853ZM28.5537 191.263C23.9137 186.413 30.4137 175.833 33.1837 170.913C46.1437 147.823 67.2537 128.173 88.7137 113.053C92.0437 110.703 104.414 101.843 107.384 101.203C113.224 99.9531 117.404 103.893 116.024 109.843C115.164 113.563 104.164 119.333 100.704 121.773C79.6737 136.653 60.4437 153.053 46.8937 175.353C44.5637 179.193 39.7637 190.923 36.7437 192.473C34.2937 193.733 30.4737 193.273 28.5537 191.263ZM131.674 461.303C128.334 461.073 110.524 452.053 105.964 449.933C98.5337 446.483 91.3937 442.263 83.4337 440.023L89.2537 429.093C92.6537 428.173 96.6437 426.263 100.114 425.913C112.494 424.683 131.954 434.923 131.954 449.023C131.954 452.823 131.814 456.673 131.954 460.473C131.964 460.723 133.394 461.423 131.674 461.303ZM58.1237 337.503C0.633713 242.283 64.6637 117.793 175.464 110.933C295.604 103.483 376.274 232.243 314.494 336.623C257.314 433.233 116.144 433.593 58.1237 337.503ZM314.074 431.053C304.674 433.673 294.654 434.663 285.424 437.843C276.824 440.803 269.384 446.063 261.174 449.843C263.004 434.453 278.224 421.373 291.964 416.033C297.944 413.713 304.744 411.633 311.224 412.343C313.764 416.983 322.994 428.573 314.074 431.053Z" fill="black"/>
<path d="M151.462 391.353C135.662 387.123 110.012 375.303 98.4324 363.703C94.3024 359.563 96.3224 352.553 102.362 354.873C105.442 356.053 109.972 362.193 113.242 364.703C153.642 395.633 214.302 394.703 256.542 368.083C334.372 319.033 337.022 205.983 261.652 153.083C214.652 120.083 158.162 123.023 111.392 154.263C109.572 155.473 100.992 163.283 100.842 156.853C100.712 151.023 111.202 144.393 115.642 141.613C132.832 130.863 155.712 123.163 176.002 121.833C241.282 117.563 300.432 156.343 319.102 219.383C349.712 322.713 255.532 419.263 151.462 391.353Z" fill="black"/>
<path d="M93.0936 351.563C90.6036 354.053 86.2636 351.543 84.2336 349.553C67.4836 333.053 54.3836 300.273 51.3436 277.233C46.8236 242.953 56.3836 202.263 78.2936 175.143C81.1536 171.603 87.5336 164.503 92.0636 168.373C92.2636 169.503 92.3636 170.743 91.8736 171.823C91.2236 173.233 86.2736 178.153 84.8536 180.063C57.8136 216.263 50.4236 261.043 66.1236 303.883C70.3436 315.403 78.4936 330.873 86.7136 339.983C89.3836 342.933 97.3136 347.343 93.0936 351.563Z" fill="black"/>
<path d="M178.842 171.283L183.772 245.663C183.322 249.253 185.492 256.143 180.192 256.353C176.982 256.483 176.172 254.413 175.622 251.643L170.662 170.733C168.002 174.953 162.552 176.783 161.662 170.453L170.372 152.733C174.062 150.243 175.422 151.863 177.952 154.173C180.882 156.843 183.842 162.113 185.672 165.813C186.852 168.223 188.932 171.273 186.502 173.753C183.602 176.723 180.682 173.643 178.842 171.283Z" fill="black"/>
<path d="M296.193 265.453C295.523 267.083 286.213 274.213 284.243 275.303C277.653 278.983 272.093 276.013 278.073 269.413L200.893 273.243C194.793 272.953 194.673 265.713 200.913 265.033L278.773 261.113L279.703 260.143C276.453 258.443 271.003 254.963 273.243 250.663C276.233 244.923 283.323 253.443 286.823 255.473C290.533 257.613 298.773 259.203 296.193 265.453Z" fill="black"/>
<path d="M187.053 277.333C173.863 280.053 174.733 260.093 185.193 259.783C188.403 259.683 193.293 262.643 193.983 265.983C195.083 271.333 192.543 276.203 187.053 277.333Z" fill="black"/>
</svg>
