<svg width="588" height="468" viewBox="0 0 588 468" fill="none" xmlns="http://www.w3.org/2000/svg">
<path d="M577.046 396.929C566.038 388.999 555.21 380.849 544.191 372.939C523.55 358.139 501.584 344.719 482.258 328.299C480.832 303.279 479.105 278.219 477.739 253.189C474.926 201.359 472.686 149.529 471.22 97.7591C470.928 87.5091 471.581 74.8591 470.667 65.0491C470.396 62.0791 469.562 59.8491 466.047 59.9391C464.42 59.9791 462.682 61.2591 461.537 61.3591C459.227 61.5791 455.139 60.8291 452.286 60.9591C395.687 63.5791 339.017 65.7291 282.548 68.0491L164.628 72.9191C159.254 57.0891 160.671 40.1991 157.014 24.0491L157.155 23.3691C166.747 18.1991 161.926 4.0691 152.826 0.979105C135.901 -4.76089 133.31 18.7491 144.339 25.7891C145.644 26.6291 148.828 27.0491 149.17 28.0691C150.214 43.3091 152.515 58.4291 154.714 73.5191L138.864 74.0391C135.731 59.8691 130.588 46.1991 128.388 31.7891C138.704 20.1391 126.761 0.459097 111.604 10.6891C104.242 15.6591 109.234 26.5491 115.029 30.9791C117.068 32.5391 119.057 32.9591 120.945 34.3991L128.991 74.3291C125.485 74.3891 121.759 74.9991 118.324 75.1791C115.542 75.3291 108.491 74.3391 106.823 76.2691C104.915 78.4791 107.697 86.4591 108.109 89.6791C111.323 115.169 111.474 142.899 113.111 168.659L124.099 341.979C84.2135 364.219 42.3389 382.849 3.31682 406.649C2.17177 407.559 0.7254 409.419 0.434116 410.859C-0.660711 416.199 2.27221 439.279 6.36024 442.889C8.0075 444.339 9.36348 442.809 10.8802 443.139C11.3422 443.239 11.8545 445.759 14.8075 445.809C21.3965 445.919 28.4577 444.949 35.0568 444.789C39.8881 444.669 44.7595 444.919 49.5908 444.819C47.2103 448.889 36.3525 455.129 38.1604 460.289C38.3915 460.929 39.1046 461.139 39.7374 461.179C35.4184 468.229 46.2561 466.399 50.4044 466.629C60.8003 467.179 74.6614 468.139 84.9266 467.189C86.9054 466.999 89.6876 466.469 90.0793 464.139C90.1798 463.579 89.6374 462.839 89.8584 462.229C91.2043 458.489 101.048 450.679 102.745 446.759C103.298 445.469 103.388 444.559 103.247 443.169L435.603 433.369C434.859 434.799 434.819 436.089 435.472 437.589C436.045 438.889 443.789 448.769 445.185 450.269C447.083 452.319 453.994 457.719 456.666 457.799L510.071 454.899C513.687 452.099 509.488 449.119 508.675 445.929L491.459 431.729C497.475 430.649 503.703 431.369 509.82 431.199C523.269 430.839 536.849 429.959 550.288 429.519C559.419 429.219 570.447 430.039 579.346 429.009C583.133 428.569 582.34 426.809 583.756 424.679C584.188 424.039 585.263 423.889 585.775 422.869C586.388 421.659 587.673 410.919 587.613 409.189C587.402 403.189 581.446 400.099 577.046 396.929ZM151.088 19.4991C146.739 18.2191 141.064 9.56913 148.005 8.21913C154.785 6.89913 153.73 19.0591 151.088 19.4991ZM122.392 27.1791C117.952 26.0191 115.23 23.0291 115.873 18.2191C116.546 13.2091 123.205 13.6091 124.34 17.8991C125.335 21.6891 123.567 23.8591 122.392 27.1791ZM452.517 78.4891L465.173 323.229L454.546 324.359L453.682 322.399C455.772 321.779 458.393 321.929 458.574 319.109C459.116 310.689 457.409 299.569 456.967 290.779C453.773 228.239 450.81 165.529 446.561 103.229C446.35 100.159 447.284 91.5791 444.663 89.8591C441.639 87.8691 438.285 87.5691 434.759 87.6791C398.7 88.7491 362.42 91.5091 326.391 93.1691L149.541 101.349C146.428 101.499 137.629 100.509 135.7 102.559C134.334 103.999 135.962 111.789 136.092 114.149C140.08 183.669 143.324 252.939 147.593 322.419C147.764 325.209 146.85 330.519 148.939 332.529C149.672 333.229 153.399 334.559 154.423 334.589C163.443 334.869 174.271 333.359 183.441 333.019C254.253 330.429 325.025 327.589 395.928 324.889C396.782 324.859 401.633 323.689 401.663 324.589C400.438 324.559 399.614 326.929 399.082 327.059C398.188 327.279 393.025 327.539 391.549 327.609C368.738 328.729 345.897 328.859 323.067 329.749L139.387 336.859L125.144 90.9691L452.517 78.4891ZM154.222 328.079L141.576 107.879L439.982 93.6991L452.578 316.679L154.222 328.079ZM449.293 332.489L406.946 334.159C406.474 334.049 405.58 331.209 405.5 330.569C405.349 329.459 405.55 329.879 406.304 329.779C415.554 328.529 425.89 328.869 435.321 328.129C439.61 327.799 443.95 327.129 448.198 326.499L449.293 332.489ZM398.921 334.669L308.02 338.489V336.859C310.732 337.299 313.404 336.419 315.945 336.289C338.585 335.189 361.245 334.889 383.885 334.159C388.063 334.019 392.673 333.079 397.023 333.569C397.846 333.659 398.71 333.679 398.921 334.669ZM18.7549 411.649C50.766 387.649 90.7624 368.759 126.651 351.119C143.967 353.079 162.529 350.649 180.156 349.919C279.153 345.849 377.949 342.089 476.985 337.449L563.728 400.639L385.894 406.529C382.86 402.339 378.712 398.939 375.096 395.209C372.705 392.739 369.361 387.169 365.765 386.499C362.089 385.819 357.378 386.919 353.772 387.039C310.119 388.489 266.457 390.229 222.875 392.469C217.34 392.749 211.505 392.259 205.96 393.059C202.666 393.539 200.677 396.619 198.939 399.159C197.593 401.139 193.033 408.239 192.37 410.059C191.979 411.129 191.858 412.069 191.948 413.189L12.3868 418.869C12.9593 415.519 16.2137 413.559 18.7549 411.649ZM372.093 407.189L287.008 409.949C284.497 405.199 285.139 398.389 290.242 395.749L364.901 392.549L372.093 407.189ZM275.899 410.479L201.802 412.639C201.229 411.839 208.793 399.339 211.394 399.019L275.085 396.379C277.345 400.579 278.811 406.249 275.899 410.479ZM91.7567 447.269C89.9086 448.979 83.43 458.629 82.6064 458.879C78.2773 458.959 73.888 459.149 69.5488 459.009C66.5556 458.919 62.6584 458.029 59.6552 457.949C56.5716 457.869 52.4133 459.019 49.0384 458.439L59.4543 449.999L64.7577 444.249L97.2208 443.179C95.7041 444.829 93.4341 445.709 91.7567 447.269ZM497.486 445.619C497.486 445.949 494.512 446.869 493.87 446.949C485.402 447.959 476.634 447.149 468.156 447.509C464.118 447.689 459.809 449.159 455.701 448.509C454.134 448.059 446.611 437.259 444.914 435.249C444.502 434.759 443.909 434.489 443.277 434.439L443.809 433.079L485.975 431.729C485.774 432.379 485.382 432.919 485.382 433.649C485.382 436.769 496.059 442.289 497.486 445.619ZM568.951 411.579C496.17 416.139 422.796 413.339 349.905 419.729C343.718 420.009 337.46 419.949 331.273 420.249C226.571 425.389 121.669 428.969 16.9871 432.249C10.4985 432.449 10.2574 434.349 10.167 425.729L475.328 409.939C502.759 409.009 530.461 407.149 557.962 406.619C560.242 406.579 573.26 406.259 574.013 407.309L574.676 411.009C572.707 410.689 570.859 411.459 568.951 411.579Z" fill="black"/>
<path d="M530.573 271.959C528.293 275.509 520.8 281.469 517.455 285.059C512.604 290.269 508.054 296.379 503.232 301.429C502.529 302.169 500.581 304.359 499.827 304.589C496.141 305.699 494.876 302.589 496.453 299.579C498.371 295.919 508.566 285.399 511.981 281.789C514.914 278.689 522.969 269.819 525.973 267.919C527.62 266.879 529.036 266.709 530.744 267.749C531.778 269.329 531.527 270.459 530.573 271.959Z" fill="black"/>
<path d="M548.954 285.889C546.292 288.999 538.628 293.539 535.002 296.529C529.92 300.709 525.018 305.129 520.137 309.529C519.112 310.239 515.928 310.619 515.235 309.639C514.723 308.409 514.924 307.119 515.416 305.919C516.43 303.459 530.834 291.859 533.917 289.449C535.916 287.879 545.047 280.549 546.613 280.239C549.737 279.599 551.103 283.389 548.954 285.889Z" fill="black"/>
<path d="M96.708 344.209C95.9748 346.199 94.0061 347.459 91.9671 347.709C85.147 347.319 76.8504 347.959 70.181 347.159C65.9323 346.639 63.2304 343.709 67.4992 340.789L91.4146 341.279C92.7505 341.399 96.6979 342.599 96.708 344.209Z" fill="black"/>
<path d="M96.0153 326.779C94.599 328.909 92.2687 328.909 89.9586 328.549C87.558 328.169 71.698 322.279 70.553 320.889C68.8053 318.769 70.0709 314.879 73.2549 315.699C78.7893 318.839 87.0256 320.019 92.329 322.929C93.916 323.799 95.3122 325.079 96.0153 326.779Z" fill="black"/>
<path d="M404.395 235.719C403.612 222.869 402.758 209.879 402.186 197.039C401.864 189.879 403.742 168.789 398.66 164.019C395.817 161.349 391.338 162.489 387.963 163.199C385.924 163.639 377.205 166.999 376.462 166.519C349.403 116.219 283.382 100.679 236.676 134.689C185.249 172.129 184.737 248.919 235.802 286.929C283.231 322.229 352.145 305.739 377.587 252.919C379.194 252.639 379.998 254.089 381.374 254.829C386.727 257.679 400.187 263.949 404.867 257.999C407.599 254.539 404.697 240.639 404.395 235.719ZM362.38 237.509C341.548 294.469 263.896 304.029 229.283 254.159C197.081 207.749 226.943 141.169 283.824 136.389C339.801 131.679 381.756 184.529 362.38 237.509ZM399.474 253.989C395.165 254.499 391.358 252.339 387.451 250.959C386.547 250.639 385.402 250.879 384.538 250.589C383.393 250.209 381.976 247.999 380.279 247.669L381.123 245.809C382.66 249.929 391.468 252.439 393.196 247.469C395.737 240.129 394.873 216.679 394.562 207.899C394.351 202.019 393.558 183.869 391.529 179.289C388.997 173.559 382.489 178.359 381.454 177.619L379.717 172.539C384.136 170.469 388.927 169.279 393.748 168.579C394.893 168.749 395.526 173.049 395.627 174.119C397.053 189.639 395.285 206.479 397.816 222.099C397.244 232.799 399.674 243.329 399.474 253.989ZM383.041 182.579L386.547 181.499C387.983 181.939 388.897 194.349 389.058 196.469C389.922 207.889 390.564 223.249 390.153 234.629C390.112 235.799 389.068 244.299 388.807 244.739C388.103 245.939 383.423 243.279 381.946 243.619C388.817 224.169 389.701 202.199 383.041 182.579Z" fill="black"/>
<path d="M434.539 121.209C434.408 117.359 432.681 104.759 431.495 101.329C430.089 97.279 427.216 97.009 423.45 97.119C410.412 97.509 389.109 99.059 376.784 102.459C368.367 104.789 365.997 106.659 366.619 115.769C366.78 118.019 367.965 127.429 368.869 128.799C369.753 130.159 374.002 130.759 375.649 130.769C387.883 130.879 403.361 130.229 415.615 129.129C418.649 128.859 430.772 127.289 432.821 126.089C434.85 124.899 434.599 123.299 434.539 121.209ZM412.331 123.129C409.639 123.349 406.827 122.969 404.125 123.129C394.181 123.759 384.297 124.759 374.283 124.219C374.323 119.679 372.475 115.099 373.449 110.579L374.675 109.619C391.137 104.509 408.695 105.079 425.74 103.509L427.91 120.919C422.757 121.729 417.544 122.699 412.331 123.119V123.129Z" fill="black"/>
<path d="M201.732 113.119C200.537 110.879 197.895 110.249 195.525 110.599C183.542 113.529 170.334 113.699 158.421 116.199C154.192 117.089 150.747 118.449 150.838 123.409C150.908 126.979 151.902 135.019 152.686 138.509C152.947 139.649 153.439 141.879 154.323 142.599C156.553 144.419 162.138 142.499 164.849 142.229C172.915 141.429 180.81 140.879 188.765 139.319C190.804 138.919 200.999 136.749 202.023 136.159C202.485 135.899 202.867 135.569 203.148 135.099C203.53 134.459 204.052 127.829 204.042 126.679C204.022 124.549 202.586 114.709 201.732 113.119ZM193.928 130.829C184.345 132.329 173.819 135.419 164.227 136.149C163.323 136.219 160.591 136.579 160.129 135.909L157.447 122.589L196.268 117.199C196.609 121.309 197.865 125.199 198.819 129.129C199.432 131.629 195.645 130.569 193.928 130.829Z" fill="black"/>
<path d="M198.537 271.149C198.436 270.239 197.874 268.379 197.271 267.769C194.891 265.399 187.267 267.409 184.003 267.609C179.111 267.909 170.142 267.199 166.194 270.049C163.03 272.329 163.271 275.259 163.452 278.819C163.603 281.649 165.21 294.169 166.727 295.729C168.786 297.829 170.493 295.409 171.869 295.539C172.452 295.599 173.105 296.309 173.727 296.389C176.58 296.769 184.575 295.829 187.769 295.359C189.437 295.109 192.631 294.779 193.876 293.799C194.117 293.619 197.121 289.999 197.342 289.619C198.959 286.889 198.929 274.709 198.537 271.149ZM192.49 288.879C185.65 289.139 178.267 289.369 171.699 291.059L170.071 274.729L192.5 273.069C191.747 278.269 191.566 283.699 192.49 288.879Z" fill="black"/>
<path d="M195.746 237.939C195.243 234.739 192.702 234.819 190.041 234.909C184.928 235.079 174.904 236.179 169.922 237.239C162.549 238.799 162.409 241.799 163.001 248.739C163.192 250.989 164.99 261.589 166.758 262.439C168.475 263.259 170.384 262.099 170.535 262.209C170.635 262.279 170.886 263.359 171.378 263.829C173.447 265.799 175.788 265.669 178.53 265.429C180.308 265.279 188.534 263.699 189.89 263.109C191.617 262.359 192.069 260.469 192.642 260.129C194.279 259.159 195.876 259.999 196.358 256.469C197.142 250.609 195.384 243.869 195.746 237.939ZM186.816 257.329C183.291 257.869 177.525 258.689 174.271 259.559C173.156 259.859 172.634 260.609 171.7 261.079L169.55 243.669L189.759 241.449L190.312 257.259C189.157 257.289 187.971 257.149 186.816 257.329Z" fill="black"/>
<path d="M198.558 302.199C197.051 298.309 192.431 299.179 189.096 299.399C184.637 299.689 172.804 300.819 169.128 302.409C162.901 305.099 165.271 315.799 167.019 321.059C168.807 326.469 171.961 322.559 173.497 322.779C174.01 322.859 175.024 323.839 176.029 324.089C178.128 324.599 183.722 324.019 185.952 323.529C187.961 323.089 193.435 319.949 193.877 319.949C195.213 319.949 195.997 323.049 198.226 320.479C200.486 317.869 199.813 305.439 198.558 302.199ZM193.315 318.329C186.706 317.569 179.614 316.469 173.337 319.409L171.679 308.259L191.808 305.339L193.044 306.059C193.104 309.869 192.963 313.689 193.044 317.509C193.044 317.639 194.078 318.229 193.315 318.329Z" fill="black"/>
<path d="M529.788 392.769C529.366 390.319 525.539 389.559 524.023 388.119C522.536 386.729 522.476 384.719 520.427 382.969C504.145 369.089 486.467 376.249 467.634 378.289C464.48 378.629 461.226 378.839 458.052 378.839L474.886 375.159C476.483 374.389 477.025 371.479 476.573 369.959C475.961 367.939 454.918 353.239 451.513 350.719C450.78 350.189 450.589 349.279 450.237 349.019C447.877 347.229 446.31 348.359 444.11 348.329C439.46 348.289 434.99 348.729 430.43 348.879C332.84 352.039 235.561 356.869 138.061 360.349L135.279 361.389C129.553 366.549 123.898 371.959 118.053 376.949C116.978 377.869 115.351 378.099 114.377 379.019C112.98 380.359 111.644 383.679 112.016 385.629C113.041 391.139 129.403 389.989 133.611 389.179L454.496 378.839C454.998 379.849 452.939 379.109 451.995 380.169C450.448 381.899 449.835 385.389 451.473 387.299C455.048 391.479 469.914 398.149 475.448 398.899C478.542 399.319 483.996 398.039 487.321 397.899C496.079 397.549 504.908 397.169 513.607 396.809C516.761 396.679 526.493 397.479 528.442 396.319C529.657 395.599 530.009 394.089 529.788 392.769ZM444.673 354.269C447.254 354.529 449.564 356.919 451.483 358.669H437.521C437.099 358.669 433.082 355.809 432.871 354.859C436.818 355.179 440.715 353.869 444.673 354.269ZM424.926 355.399C425.157 355.379 425.719 354.649 426.292 354.849L427.387 359.209C421.28 359.579 415.655 361.769 412.059 355.399C416.328 355.219 420.667 355.629 424.926 355.399ZM387.681 356.489C392.955 356.099 398.449 356.369 403.732 356.059L407.137 360.299L390.444 360.839L386.325 357.299C386.105 356.059 386.868 356.549 387.681 356.489ZM297.082 360.309L324.453 359.209V363.579L297.082 364.659C297.655 363.029 297.655 361.939 297.082 360.309ZM168.204 365.279C177.204 365.109 186.334 364.989 195.233 364.119L192.109 369.039L165.12 370.109L168.204 365.279ZM139.327 366.619L160.188 365.759L156.542 370.569C149.019 371.049 141.335 370.879 133.913 371.749L139.327 366.619ZM145.022 382.549L119.127 383.739L127.173 377.299C134.907 378.629 142.621 376.989 150.335 377.209L145.022 382.549ZM182.828 381.479L154.172 382.649C155.498 381.239 158.812 376.989 160.48 376.669L187.017 375.579L182.828 381.479ZM214.016 380.369L191.406 381.019L196.167 375.139L217.682 374.479L214.016 380.369ZM200.707 368.479L202.686 364.199L224.803 363.039L221.7 367.849L200.707 368.479ZM246.338 379.299L222.614 379.929L226.27 374.039L249.442 372.849L246.338 379.299ZM251.802 366.739L229.725 367.389C230.418 365.889 231.202 364.609 230.277 363.039L254.364 361.939C254.665 362.209 253.058 366.639 251.802 366.739ZM287.419 378.229L253.821 379.379L256.905 372.919L289.408 371.209C289.047 372.669 288.685 377.799 287.419 378.229ZM290.162 365.139L259.848 366.299L260.451 361.999C261.425 360.779 287.912 361.409 291.598 360.309L290.162 365.139ZM294.882 377.749C294.892 376.369 295.053 371.699 296.329 371.279L314.85 370.099L325.588 370.349L326.642 376.659L294.882 377.749ZM330.027 359.469L331.293 358.669L352.848 358.209L354.565 362.479L331.815 363.389L330.027 359.469ZM362.782 375.569L333.231 376.639L332.116 369.579L358.593 368.569C359.326 369.299 363.254 375.139 362.782 375.569ZM359.497 357.579C363.746 358.629 374.714 355.749 377.868 357.549C378.822 358.089 380.56 360.439 381.394 361.389C375.809 360.469 368.336 362.949 363.063 361.929C361.295 361.579 360.381 358.999 359.497 357.579ZM370.265 375.049L366.066 367.939L387.581 367.499L394.542 374.469L370.265 375.049ZM402.587 373.939L396.179 366.849L413.867 366.409L420.818 373.379C414.781 374.159 408.684 373.909 402.587 373.939ZM430.51 373.279C427.618 371.019 424.705 368.709 422.465 365.759C426.483 366.569 432.077 364.489 435.763 365.329C438.375 365.919 444.02 371.189 446.551 372.839L430.51 373.279ZM446.551 364.669C448.027 364.569 449.665 364.889 451.101 364.559C452.126 364.309 452.839 363.269 453.522 363.129C453.743 363.089 457.861 363.199 458.082 363.259C459.769 363.689 465.826 369.129 467.363 370.659C463.857 370.649 460.894 372.989 457.349 372.179C454.737 371.589 449.092 366.319 446.551 364.669ZM514.752 389.179C500.8 388.759 485.975 391.759 472.043 392.999L460.241 384.839C474.464 384.179 488.496 381.339 502.658 379.939C508.434 382.699 514.089 387.889 520.477 388.659C520.738 390.969 516.168 389.219 514.752 389.179Z" fill="black"/>
<path d="M89.8284 388.659C81.6122 387.849 63.3014 388.759 58.8819 397.089C57.988 398.769 57.0036 402.319 58.4801 403.789C60.3383 405.639 62.538 403.509 63.0101 403.499C63.2612 403.499 65.8627 406.009 66.9374 406.549C71.8391 409.019 87.0863 407.659 92.7211 406.259C107.687 402.519 102.765 389.939 89.8284 388.659ZM85.9915 401.189C78.4984 402.149 71.3067 401.259 63.8237 401.189C64.7076 398.869 67.972 397.199 70.242 396.409C75.5856 394.529 88.3117 393.659 93.3941 396.009C99.9731 399.049 88.5327 400.859 85.9915 401.189Z" fill="black"/>
<path d="M337.289 186.359L285.862 246.359C280.981 253.369 272.835 246.639 267.341 243.519C255.177 236.619 244.068 228.009 231.784 221.289C227.495 217.079 231.061 213.129 233.883 209.329C235.631 206.969 242.963 198.089 245.384 197.829L272.986 212.869L308.02 169.209C309.085 168.189 311.254 167.269 312.691 167.279C316.849 167.309 331.855 179.759 336.857 181.659C338.173 183.149 338.695 184.679 337.289 186.359Z" fill="black"/>
</svg>
