<svg width="641" height="464" viewBox="0 0 641 464" fill="none" xmlns="http://www.w3.org/2000/svg">
<path d="M632.263 301.605C627.823 296.135 616.383 283.045 609.663 281.685C603.723 280.485 600.603 285.155 595.783 287.405C590.573 280.695 586.193 274.585 579.053 269.775C568.433 262.615 555.133 256.835 543.843 250.465C527.473 241.235 511.413 231.485 494.853 222.575C493.573 220.465 495.443 205.995 494.333 201.835C494.143 201.125 490.683 193.945 490.233 193.395C488.993 191.895 481.513 187.425 481.513 186.865C485.053 182.605 487.823 176.115 487.523 170.495C487.313 166.735 484.353 155.855 482.293 152.835C481.653 151.895 479.583 150.475 479.433 149.725C479.323 149.155 480.363 146.855 480.433 145.455C480.873 137.445 479.983 129.405 479.843 121.475C479.703 113.565 482.893 109.985 475.463 104.595C473.303 103.025 463.943 99.0954 463.593 97.8954C463.153 96.3454 464.493 92.7954 464.593 90.9154C464.913 85.3754 465.693 76.4954 465.173 71.2754C464.443 63.8254 458.693 63.9554 454.983 59.9354C452.673 57.4354 452.413 53.6454 449.353 51.1154C439.263 42.8054 426.053 51.0254 414.303 47.4554C412.223 46.8154 407.153 41.7154 404.803 40.0554C399.513 36.3254 395.963 33.9854 389.123 34.5354C388.153 34.6054 387.343 35.5454 386.463 35.4754C385.313 35.3854 379.113 32.9954 378.103 32.1354C374.513 29.0654 370.283 22.9454 366.213 19.2254C362.383 15.7354 357.283 12.8354 353.913 9.7154C350.353 6.4154 349.093 1.28542 343.163 0.295418C332.023 -1.58458 316.973 9.6354 306.863 14.4354C297.063 19.0754 286.723 22.4754 276.853 26.9454C273.323 28.5454 251.963 38.9954 250.853 40.7454C250.333 41.5654 250.323 43.5654 249.483 43.7454C238.143 41.0854 226.543 35.8754 215.343 33.2354C207.953 31.4954 203.073 30.1454 196.893 35.3054C194.293 37.4754 192.993 40.1254 190.903 42.4054C189.893 43.5054 188.143 44.1754 187.093 45.2854C183.123 49.5254 182.313 56.7654 182.163 62.2854L177.603 63.9854C167.973 78.8154 149.873 90.8854 157.533 111.025C152.243 115.255 151.493 121.655 148.783 127.305C146.873 131.285 141.953 137.545 141.333 141.655C140.253 148.835 146.503 156.025 150.023 161.775C142.383 167.965 131.273 184.735 133.913 194.785C134.663 197.635 138.253 200.005 139.113 202.945C133.273 203.155 129.533 210.025 125.193 213.835C105.223 231.395 79.8231 250.065 56.6131 263.005C53.4731 264.755 44.4031 270.155 41.5831 270.825C40.3831 271.105 38.9831 269.795 37.8431 269.585C30.3131 268.235 25.3331 270.315 18.8031 273.725C13.0931 276.695 7.7231 280.615 2.0131 283.645C-0.106903 286.795 -0.606893 289.965 0.773107 293.565C1.28311 294.885 2.85309 296.445 3.21309 297.665C5.59309 305.685 5.5231 308.155 10.0031 315.955C26.7631 345.115 53.7231 374.585 76.1531 399.735C83.6531 408.145 92.8431 420.895 101.863 427.445C105.253 429.905 107.653 430.815 111.753 429.345C113.413 428.755 114.453 427.495 115.843 426.905C124.503 423.205 134.283 419.985 142.393 415.285C144.493 414.065 148.653 410.435 150.033 409.835C151.383 409.245 153.063 409.855 154.363 408.725C155.413 407.805 156.153 404.265 157.003 402.635C162.313 392.585 179.033 385.765 189.083 380.735C208.913 370.805 230.713 359.905 251.293 351.905C276.363 342.155 310.913 332.345 337.863 334.305C351.293 335.275 372.203 351.995 384.293 359.295C414.483 377.515 445.353 394.625 475.873 412.185C480.733 414.975 483.813 418.455 488.093 421.225C490.843 423.005 494.293 424.145 497.133 425.815C498.403 426.555 506.403 431.425 506.783 431.845C507.293 432.435 507.233 435.155 507.653 436.565C510.123 445.015 520.993 450.295 527.803 455.665C533.873 460.445 536.553 466.815 545.473 461.785C553.123 457.475 563.033 440.675 567.873 432.945C581.713 410.865 593.683 387.025 608.643 365.765C615.853 355.525 639.403 328.235 640.183 317.175C640.553 311.905 635.543 305.645 632.263 301.605ZM35.5231 296.715C33.6731 297.105 33.1031 295.205 31.7131 294.535C29.5131 303.285 19.3731 299.535 21.0431 291.225C23.6531 278.295 41.0731 283.745 35.5231 296.715ZM485.863 206.495C486.103 211.635 484.873 211.495 483.423 215.495C482.043 219.295 481.113 223.295 478.783 226.665C478.023 227.145 477.223 226.945 476.403 226.885C470.333 226.425 440.413 219.595 435.503 217.055C430.193 214.305 431.093 209.755 431.983 204.675L449.613 197.495C450.233 197.435 450.793 197.385 450.163 198.045C449.303 198.945 446.373 200.955 445.173 201.775C444.043 202.545 442.553 202.045 442.223 203.775C441.883 205.585 445.063 213.415 446.573 214.705C450.533 218.065 466.813 217.575 469.973 212.405C472.063 208.985 471.073 199.335 469.203 195.895C467.453 192.705 462.203 193.795 459.263 194.075C458.663 194.125 457.413 194.715 457.523 193.685C462.323 192.775 465.723 188.845 470.593 188.225C470.803 191.675 475.943 192.325 478.793 193.945C484.503 197.195 485.553 199.935 485.863 206.495ZM460.653 197.635C461.923 197.465 465.253 197.075 465.983 198.025C466.403 198.585 467.283 203.765 467.343 204.835C467.493 207.535 467.723 210.395 464.993 211.785C462.533 213.045 451.423 213.435 449.353 211.935C448.213 211.105 445.353 203.485 445.753 202.925C450.473 201.745 455.973 198.275 460.653 197.635ZM474.423 157.975C478.903 163.785 478.553 170.465 476.903 177.365C476.533 178.925 475.733 180.455 474.383 181.385C463.663 185.725 453.303 191.015 442.623 195.415C436.333 198.005 423.373 203.865 417.313 205.005C413.813 205.665 409.693 204.945 406.433 203.595C405.793 203.335 402.083 201.245 401.863 200.945C400.803 199.435 398.893 191.245 397.963 188.635C396.923 185.715 395.193 185.425 396.173 181.675C396.343 180.985 397.813 178.225 398.333 177.845C399.713 176.815 406.313 175.365 408.813 174.145C423.943 166.745 441.643 160.885 457.773 154.965C461.563 153.575 465.623 152.865 469.483 151.715C469.923 154.555 472.813 155.895 474.423 157.975ZM471.683 109.765C470.443 115.695 472.983 121.925 473.353 127.965C473.523 130.755 473.713 142.485 472.683 144.245C472.443 144.645 472.253 144.815 471.903 145.105C471.053 145.795 458.963 151.515 457.513 151.975C454.793 152.845 451.653 152.695 448.923 153.745C434.713 156.985 417.023 167.375 403.133 169.565C396.203 170.655 392.593 169.105 388.913 163.335C387.653 161.365 382.783 150.525 382.803 148.695C382.833 144.955 389.263 139.165 387.183 134.815C388.603 134.675 390.053 134.355 391.373 133.815C402.733 129.265 415.323 121.185 426.793 115.805C434.893 112.005 443.243 108.675 451.383 104.925C454.053 105.705 456.633 105.985 459.363 106.525C463.533 107.345 467.763 108.075 471.683 109.765ZM417.723 58.4954C425.093 60.0554 432.693 58.9054 440.223 58.5754C442.843 61.6554 453.923 69.7054 454.683 73.0454C455.153 75.1454 455.653 79.8754 455.873 82.2154C456.203 85.6554 456.583 91.9254 456.453 95.3154C456.393 96.6954 456.163 97.9954 455.823 99.3154C452.853 98.9354 451.023 99.9454 448.423 100.915C432.373 106.885 414.603 116.405 399.163 124.165C393.093 127.215 387.783 132.455 380.503 129.225C379.823 128.915 376.263 123.475 375.843 122.425C373.943 117.685 371.763 108.005 372.593 103.045C373.663 96.6854 385.703 89.3154 390.733 85.2054C391.493 84.5654 391.833 83.1454 392.633 82.7454C394.343 81.8954 399.213 81.7854 402.043 80.7054C408.133 78.3954 411.173 73.8154 414.183 68.3154C415.783 65.3854 417.973 61.8454 417.723 58.4954ZM260.413 43.2254C260.933 42.1654 274.143 35.5954 276.313 34.5854C286.113 29.9854 296.463 26.5454 306.313 22.0654C311.873 19.5354 322.413 12.8054 327.553 11.6654C329.213 11.3054 327.763 15.9854 327.733 16.7654C327.673 18.6254 327.593 20.6954 328.023 22.5054C329.363 20.2454 329.933 17.5454 330.933 15.0554C331.503 13.6454 332.583 12.4354 333.073 11.1954C333.823 9.28541 332.293 7.8954 335.933 7.2454L333.763 20.3254L339.473 8.8754C341.183 7.2954 345.923 11.1154 347.553 12.2554C357.363 19.0854 365.153 29.1254 373.813 37.2454C374.423 37.8154 379.173 41.7154 379.523 41.8454C380.143 42.0654 381.313 41.4454 382.403 41.6854C392.333 43.9154 402.723 48.0254 408.443 56.8454C394.613 61.1054 377.543 62.3754 377.363 43.2254C376.813 42.9954 376.283 44.5054 376.283 44.5854C376.283 46.9854 375.943 50.5854 376.283 52.7654C377.943 63.3854 391.673 63.8154 399.853 62.7054C403.613 62.1954 408.413 60.1054 411.523 59.7454C412.263 59.6554 413.103 60.2154 413.903 60.1254C409.783 69.1854 406.093 77.4354 395.023 78.5954C386.403 79.4854 356.773 76.3454 349.023 72.9354C343.823 70.6454 340.903 66.4454 337.033 62.5754L339.203 62.8554L333.483 41.5954C328.883 47.5254 334.653 53.7154 336.473 59.5754C333.993 57.3054 332.143 53.4254 330.763 50.3054C330.263 49.1554 327.683 38.4454 325.823 44.2954C324.323 48.9954 329.803 55.1954 332.663 58.4854C318.923 54.9954 305.343 50.7654 291.233 48.9454C294.063 50.7554 297.593 51.9054 300.763 53.0454C308.543 55.8554 318.643 59.1754 326.663 60.9454C329.473 61.5654 332.583 62.8654 334.023 59.5854L338.113 68.8454C313.423 58.4654 286.953 53.6554 261.103 47.0454C260.043 46.4754 259.943 44.1954 260.413 43.2254ZM278.973 332.695C275.353 333.025 270.583 334.825 267.103 336.095C236.973 347.075 206.893 358.335 179.093 374.565L152.743 390.465C152.623 390.355 153.603 388.875 153.843 388.565C166.943 371.695 187.453 352.295 203.443 337.855C209.123 332.725 229.343 317.465 231.373 311.815C231.613 311.135 231.963 310.575 231.793 309.795C231.363 309.365 226.333 310.865 225.423 311.315C222.053 312.975 213.803 320.765 210.533 323.685C187.663 344.105 167.863 368.715 149.313 393.025L148.103 393.595C137.783 383.455 127.533 373.175 117.573 362.675C103.513 347.865 88.9831 332.275 75.5931 316.885C65.5731 305.375 55.4731 293.585 48.1031 280.135C63.6131 270.625 79.9031 262.395 95.2331 252.565C110.583 242.735 124.863 231.335 139.473 220.485C142.703 218.465 146.093 219.285 149.263 219.255C151.983 219.225 153.893 218.025 156.853 219.835C190.793 247.795 220.573 282.105 255.543 308.685C266.103 316.705 277.383 324.075 290.613 326.765C291.493 335.245 284.513 332.195 278.973 332.695ZM591.363 307.595C565.913 341.065 547.703 379.415 524.043 414.145C520.173 414.155 516.203 417.745 512.583 418.555C506.463 419.935 493.823 412.575 487.553 410.865C440.703 380.535 390.403 355.205 343.173 325.995C341.853 325.185 339.793 319.655 337.573 320.415L342.473 329.155C341.553 329.645 339.993 329.485 338.943 329.415C326.183 328.505 304.093 323.905 291.223 320.975C285.683 319.715 280.463 317.805 275.423 315.235L335.383 319.065C322.083 316.625 308.663 314.375 295.243 312.595C286.563 311.445 277.203 311.785 269.143 308.715L268.603 310.875C264.703 308.295 260.853 305.575 257.163 302.695C230.943 282.165 207.863 257.775 183.283 235.375C173.723 226.665 162.313 218.275 153.283 209.225C149.713 205.655 145.323 187.515 146.323 182.625C146.573 181.425 151.943 171.215 152.753 170.525C155.553 168.155 160.843 170.845 162.313 166.395L202.363 190.135C203.753 193.085 202.093 195.935 202.503 199.265C202.613 200.205 204.163 206.725 205.623 205.675C205.903 203.515 206.773 200.425 206.743 198.345C206.713 196.945 204.813 186.995 204.273 186.045C204.123 185.785 203.573 185.345 203.453 185.505V188.775L201.813 188.505C194.063 181.855 186.023 175.485 177.763 169.485C171.683 165.055 158.663 158.405 155.373 152.075C154.613 150.605 152.383 144.815 152.393 143.345C152.453 138.565 162.493 117.105 167.313 116.355C168.923 116.115 176.253 120.995 178.343 122.025C187.383 126.445 197.183 130.655 206.723 133.715C193.273 124.705 179.793 115.615 165.283 108.375C164.723 107.955 164.713 107.385 164.703 106.765C164.693 104.925 166.623 98.8754 167.313 96.7654C169.193 90.9454 172.043 84.8854 175.423 79.7954C176.193 78.6354 180.113 73.0154 180.923 72.7654C184.443 71.6854 186.743 73.6954 189.573 74.2654C199.053 76.1854 206.023 79.3154 215.163 81.9354C216.683 82.3754 218.213 82.9554 219.803 83.0154C218.923 81.8154 217.113 80.9654 215.813 80.2054C210.283 76.9754 200.393 72.7854 195.833 69.0954C186.553 61.6054 195.693 45.7954 204.333 41.6554C213.103 37.4554 222.983 41.5354 231.913 43.9254C248.433 48.3354 263.343 52.5254 280.203 56.1654C303.573 61.2054 329.943 71.7354 349.313 85.7254C354.573 89.5354 359.943 93.1954 365.093 97.1554C364.293 103.745 363.073 110.975 363.743 117.625C364.463 124.755 372.403 133.015 379.003 135.365C374.153 144.385 370.543 151.335 376.703 160.825C379.533 165.195 387.183 171.545 388.573 176.215C390.083 181.285 388.093 189.225 390.063 195.975C390.533 197.565 396.683 208.895 397.573 209.735C399.683 211.725 405.283 213.685 408.173 213.735C414.083 213.855 417.653 210.035 422.613 215.775C425.563 219.195 425.583 222.955 429.983 226.385C439.503 233.815 468.583 236.275 480.683 236.195C483.793 236.175 486.023 234.405 488.593 233.695L576.553 282.625C580.683 286.565 594.013 301.915 591.363 307.595ZM617.983 312.965C616.003 320.575 604.793 318.605 603.683 310.565C603.033 305.875 603.563 299.965 609.353 299.415C614.783 298.905 614.803 303.435 614.543 307.615L616.993 305.955C619.233 305.935 618.353 311.535 617.983 312.965Z" fill="black"/>
<path d="M614.543 307.615L616.993 305.955C619.233 305.935 618.353 311.535 617.983 312.965C616.003 320.575 604.793 318.605 603.683 310.565C603.033 305.875 603.563 299.965 609.353 299.415C614.783 298.905 614.803 303.435 614.543 307.615Z" fill="white"/>
<path d="M35.5239 296.715C33.6839 297.115 33.1039 295.215 31.7239 294.535C29.5239 303.295 19.3839 299.545 21.0539 291.225C23.6639 278.295 41.0839 283.745 35.5239 296.715Z" fill="white"/>
<path d="M512.033 347.945C511.123 348.055 510.283 347.835 509.413 347.575C494.613 343.305 480.103 335.465 466.063 329.325C449.823 322.215 441.873 320.545 427.513 308.985C415.613 299.415 403.093 289.715 391.533 279.545C390.023 278.215 388.363 276.855 387.193 275.175C387.523 274.475 388.693 275.105 389.203 275.335C392.823 277.015 402.833 284.135 405.573 284.635C407.263 284.945 411.443 283.295 413.633 283.095C415.683 282.895 417.833 283.205 419.893 283.085C420.153 284.655 419.553 283.985 418.633 284.245C415.423 285.165 411.773 285.445 408.443 285.815C440.823 307.085 475.433 325.345 509.853 343.325C511.003 344.425 510.213 344.285 509.273 343.905C500.053 340.165 491.333 334.455 482.233 330.595C481.733 330.385 480.843 329.415 480.423 330.235L512.033 347.945Z" fill="black"/>
<path d="M241.602 226.125C241.772 227.485 240.942 227.015 240.242 226.405C237.622 224.095 233.382 218.395 231.042 215.425C224.412 207.035 216.252 197.185 215.992 186.055C217.042 185.825 217.292 186.585 217.842 187.195C219.082 188.555 220.852 190.455 221.892 191.865C223.602 194.205 228.892 205.565 229.592 205.965C230.222 206.325 232.482 204.675 235.342 207.315L250.882 224.745L233.982 213.855L241.602 226.125Z" fill="black"/>
<path d="M233.983 277.625C230.993 276.905 227.613 273.975 225.253 271.915C217.713 265.325 209.513 251.895 206.983 242.215C205.773 237.625 208.613 235.525 212.103 238.725C217.773 252.745 222.903 266.875 233.983 277.625Z" fill="black"/>
<path d="M291.764 198.585C285.514 192.475 278.214 185.945 273.014 178.915C271.504 176.875 266.994 171.255 269.644 169.095C271.474 167.605 273.444 169.545 274.554 170.825C279.444 176.445 286.974 189.605 290.904 196.465C291.294 197.145 291.954 197.665 291.764 198.585Z" fill="black"/>
<path d="M242.704 147.345C241.924 147.095 241.344 146.275 240.844 145.665C236.654 140.515 228.764 128.965 227.164 122.815C226.984 122.155 226.184 118.635 226.354 118.455C227.444 118.315 228.154 119.375 228.804 120.085C235.254 127.045 238.474 138.845 242.704 147.345Z" fill="black"/>
<path d="M289.042 97.7352C288.052 97.8752 287.462 97.0452 286.702 96.5352C282.462 93.6752 269.262 82.6852 268.042 78.1352C267.702 76.8952 267.372 75.7452 268.602 74.8552L289.042 97.7352Z" fill="black"/>
<path d="M300.493 198.035L291.863 188.955C290.263 186.675 288.813 184.055 289.053 181.145C295.893 182.785 298.243 192.165 300.493 198.035Z" fill="black"/>
<path d="M250.874 259.645C245.294 253.985 239.724 247.575 238.354 239.475C244.664 244.505 248.374 252.155 250.874 259.645Z" fill="black"/>
<path d="M264.503 267.275C259.693 264.015 254.033 258.315 254.703 252.015C255.643 251.765 255.793 252.405 256.343 252.825C260.743 256.195 262.423 262.355 264.503 267.275Z" fill="black"/>
<path d="M247.064 146.795C245.884 147.075 245.854 146.145 245.314 145.555C241.394 141.285 237.844 135.175 237.254 129.355C238.444 129.085 238.464 130.025 239.004 130.605C242.994 134.885 245.254 141.325 247.064 146.795Z" fill="black"/>
<path d="M401.363 266.985C398.943 268.595 396.093 269.775 393.733 271.385C392.983 271.895 392.793 272.985 392.263 273.305C390.363 274.435 387.753 274.055 388.353 271.475C389.013 268.665 399.753 266.665 402.443 265.635C402.773 267.125 401.993 266.565 401.363 266.985Z" fill="black"/>
<path d="M298.313 102.095C294.983 100.605 290.913 97.5654 288.213 95.0254C285.813 92.7654 282.813 89.4954 281.963 86.2954L298.313 102.095Z" fill="black"/>
<path d="M213.804 136.445C212.564 136.665 212.934 136.375 212.594 135.745C211.584 133.925 208.934 126.375 212.464 126.045C216.854 125.645 214.104 134.065 213.804 136.445Z" fill="black"/>
<path d="M256.354 75.1353C253.304 78.5253 249.814 81.6453 245.984 84.1153C245.514 83.5953 247.694 81.0853 248.144 80.5553C249.974 78.3953 253.094 75.3853 255.234 73.4753C255.774 72.9953 259.774 69.5653 260.154 69.9353C260.544 70.3253 256.854 74.5753 256.354 75.1353Z" fill="black"/>
<path d="M211.624 204.585C210.464 205.975 210.004 201.525 209.974 201.065C209.714 197.845 209.594 193.195 211.354 190.415C212.894 194.875 212.184 199.975 211.624 204.585Z" fill="black"/>
<path d="M257.962 148.435C257.152 149.315 249.132 141.855 249.792 139.715C250.742 138.755 259.152 147.155 257.962 148.435Z" fill="black"/>
<path d="M265.593 73.2053C265.653 77.1453 264.223 81.5653 261.793 84.6553C261.873 80.7553 262.673 76.0453 265.593 73.2053Z" fill="black"/>
<path d="M311.944 210.575C309.104 208.275 306.674 203.975 306.504 200.225C309.354 202.675 311.344 206.935 311.944 210.575Z" fill="black"/>
<path d="M409.544 272.735C406.564 275.525 401.984 276.795 398.094 277.625C400.654 274.625 405.674 273.145 409.544 272.735Z" fill="black"/>
<path d="M268.873 264.545C267.003 265.555 265.093 260.745 265.603 260.185C267.853 260.265 268.113 262.965 268.873 264.545Z" fill="black"/>
<path d="M189.823 269.455C186.243 273.265 181.273 274.915 176.993 277.615C154.563 291.745 132.293 307.625 108.953 320.245C107.843 320.845 106.562 321.675 105.312 321.785L147.343 292.665L189.823 269.455Z" fill="black"/>
<path d="M407.893 111.365C406.493 111.595 407.053 111.235 406.763 110.595C406.213 109.415 404.733 102.755 403.753 102.605C400.153 104.005 390.263 104.575 387.503 106.505C386.653 107.095 386.713 107.415 386.613 108.335C386.003 113.535 388.703 118.905 386.913 123.905C386.133 123.335 385.883 122.845 385.583 121.955C384.743 119.475 382.753 114.255 382.413 112.055C382.053 109.745 381.673 104.105 383.703 102.705C385.543 101.445 397.973 98.5752 400.603 98.3552C409.753 97.5652 409.913 104.335 407.893 111.365Z" fill="black"/>
<path d="M406.563 118.485C401.083 120.995 386.903 134.605 388.283 120.085C389.513 120.525 390.843 121.865 392.243 121.645C395.173 121.175 402.343 114.085 405.403 114.115C405.923 114.115 406.863 114.415 407.233 114.775C408.153 115.635 407.413 117.705 406.563 118.485Z" fill="black"/>
<path d="M434.073 100.055C432.583 101.815 431.163 100.335 429.713 99.3753C429.663 101.095 429.773 102.835 429.713 104.555C429.683 105.215 430.123 106.585 429.173 106.455C428.733 103.055 425.173 96.2654 425.513 93.1754C425.933 89.4054 430.083 91.5454 431.343 93.9254L431.623 92.2854C434.073 93.3354 435.383 97.6453 434.073 100.055Z" fill="black"/>
<path d="M418.254 135.635C416.064 133.175 409.834 129.875 406.714 130.015C398.214 130.415 394.054 137.225 396.744 145.145C397.674 147.875 400.774 150.895 401.244 153.195C402.484 159.285 399.344 169.165 409.184 165.255C413.124 163.685 420.034 160.135 422.194 156.455C425.744 150.405 422.654 140.575 418.254 135.635ZM419.054 154.405C416.694 158.165 409.994 160.795 405.984 162.435C402.724 160.195 404.934 159.175 405.694 156.855C408.224 149.165 399.454 145.935 400.834 138.905C401.424 135.865 407.164 134.265 409.834 134.525C416.234 135.125 422.384 149.095 419.054 154.405Z" fill="black"/>
<path d="M452.064 144.625C450.734 144.785 451.194 144.625 450.924 143.855C449.754 140.655 447.944 133.785 449.294 130.675C449.654 129.845 449.864 129.155 450.964 129.355C453.734 133.895 452.584 139.595 452.064 144.625Z" fill="black"/>
<path d="M449.334 141.345C448.634 141.195 448.174 140.455 447.794 139.895C446.884 138.555 442.214 130.035 442.214 129.075C442.204 128.315 442.304 127.495 443.134 127.215C443.944 127.035 444.644 127.065 445.264 127.705C446.954 129.455 448.254 138.625 449.334 141.345Z" fill="black"/>
<path d="M441.702 144.615C440.152 144.875 440.792 144.295 440.542 143.355C440.062 141.595 439.292 135.665 439.522 133.985C439.622 133.235 439.822 132.385 440.602 133.175C441.772 136.905 441.842 140.725 441.702 144.615Z" fill="black"/>
<path d="M435.173 174.325C432.623 172.165 429.873 172.555 430.803 168.605C430.083 167.875 416.523 171.535 414.563 172.265C407.213 175.025 414.313 183.415 415.923 188.655C417.623 194.185 415.883 199.425 423.843 198.445C428.093 197.925 438.953 194.975 440.653 190.725C442.363 186.455 438.693 177.305 435.173 174.325ZM437.253 188.925C436.323 192.225 424.273 194.525 421.003 194.755C420.573 188.235 417.183 182.565 415.043 176.555C415.273 175.635 429.293 172.025 430.153 172.535C432.893 175.295 438.273 185.305 437.253 188.925Z" fill="black"/>
<path d="M454.794 187.135C453.144 187.405 453.914 186.735 453.684 185.815C453.154 183.655 450.604 173.645 452.074 172.425C452.984 172.305 453.284 172.355 453.964 172.975C456.634 175.415 454.844 183.735 454.794 187.135Z" fill="black"/>
<path d="M464.053 181.685C462.293 180.175 453.893 169.055 455.343 167.515C460.923 168.645 462.223 177.075 464.053 181.685Z" fill="black"/>
</svg>
