<svg width="506" height="365" viewBox="0 0 506 365" fill="none" xmlns="http://www.w3.org/2000/svg">
<path d="M448.12 196.622C467.64 186.362 486.48 174.722 505.35 163.332C494.32 152.972 481.49 145.022 469.43 136.002C419.1 98.3516 368.64 61.2016 317.85 24.1916C307.06 16.3316 296.86 7.46157 285.79 0.101571C281.87 -0.708429 274.88 3.53156 271.3 5.53156C243.34 21.1316 216.81 39.3816 189.81 56.5516C170.89 58.4016 158.89 58.1016 143.63 70.3516C142.08 71.5916 137.95 74.8916 137.11 76.3816C135.2 79.7816 136.45 86.4216 137.21 90.1816L135.98 91.6115C98.0303 116.442 59.6802 140.702 22.9102 167.212C15.2102 172.762 7.56023 178.582 0.490234 184.872C25.2102 191.462 50.0503 197.712 74.6403 204.792C88.7703 208.852 102.99 213.102 117.04 217.462C118.89 218.032 128.45 220.972 129.17 221.682C130.53 223.012 128.71 228.282 128.6 230.402C127.73 246.492 129.52 262.952 129.69 278.942C129.71 280.832 130.57 283.242 130.52 285.242C140.83 272.052 152.16 258.702 166.18 249.432C164.34 229.182 160.11 209.322 156.59 189.342C155.4 182.582 154.75 175.712 153.53 168.962C151.66 158.632 148.2 147.602 146.76 137.552C146.55 136.102 146.06 133.482 146.04 132.222C146.03 131.082 148.92 120.932 149.43 120.602L154.77 119.672C155.49 121.032 157.98 122.052 158.63 122.942C159.34 123.912 159.46 125.802 160.34 127.242C162.52 130.812 166.03 133.762 168.09 137.482C171.4 143.502 173.42 153.552 175.14 160.432C190.16 220.692 197.9 282.732 209.48 343.702C210 346.432 212.85 356.392 212.6 358.052C212.51 358.692 212.37 359.162 211.68 359.342L206.58 359.432C206.94 352.192 205.17 345.072 203.69 338.052C200.54 323.102 195.82 308.442 192.58 293.532C189.61 279.902 188.45 264.132 184.97 250.962C184.52 249.282 181.96 243.082 181.11 247.472C179.97 253.302 185.6 279.492 187.13 286.982C190.25 302.332 194.76 317.332 198.25 332.582C199.14 336.492 201.67 345.412 201.7 348.822C201.73 352.612 196.5 354.092 193.86 352.382C192.63 351.592 190.59 337.582 189.96 334.872C185.3 314.892 180.48 294.902 175.65 275.002C170.8 254.992 170.73 230.892 167.8 210.312C167.68 209.472 166.12 197.872 164.06 200.152C164.22 207.022 166 213.792 166.78 220.612C171.13 258.782 175.64 296.772 183.95 334.342C185.56 341.632 188.19 348.762 189.13 356.152C186.95 355.932 185.61 354.352 185.02 352.362C183.52 347.322 183.09 340.232 181.88 334.772C178.82 321.012 174.98 307.422 172.41 293.522C169.86 279.752 168.45 265.792 166.23 251.972C156.62 260.632 147.25 269.542 138.99 279.532C137.69 281.112 134.8 286.042 133.8 286.882C132.67 287.812 131.15 286.792 131.35 288.232C143.62 293.182 155.82 299.972 168.3 304.202C168.98 304.432 169.82 304.202 170.51 304.412C174.09 321.022 179.17 337.442 181.41 354.332C181.65 356.142 181.28 359.622 181.59 360.682C182.39 363.382 187.92 362.422 189.92 362.732C192.9 363.182 195.99 365.082 199.75 364.902C202.24 364.782 203.63 363.012 205.24 362.722C206.84 362.432 208.56 362.832 210.43 362.462C213.21 361.912 217.03 360.442 216.81 357.112C216.61 353.882 214.51 348.362 213.83 344.812C212.11 335.732 210.84 326.542 209.31 317.432C216.56 319.692 223.27 322.332 230.85 323.422C259.34 327.502 297.15 323.222 325.45 317.712C357.07 311.552 374.5 299.792 398.76 279.772C408.69 271.572 425.88 257.262 433.39 247.332C434.45 245.922 436.65 242.042 436.54 240.412C436.21 235.542 428.79 218.212 426.41 212.862C425.6 211.022 423.28 210.462 425.44 207.742C432.9 203.832 440.66 200.532 448.12 196.622ZM157.69 116.592C155.93 115.982 149.18 117.402 148.27 116.992C145.51 115.752 143.67 111.422 142.3 108.862L145.17 106.372C147.88 109.142 151.29 111.572 155.33 111.782L150.97 106.342C154.57 106.292 155.62 104.322 158.25 102.562L161.85 106.032C160.32 109.662 161.38 114.082 157.69 116.592ZM152.05 80.4116L150.99 82.6316L152.65 96.2315C152.43 98.7915 152.61 102.252 150.03 103.522C147.11 104.302 144.33 99.5016 143.48 97.1916C142.44 94.3916 140.89 88.2415 140.23 85.1715C139.86 83.4415 139.03 80.1116 140.03 78.7516L151.79 68.7015C160.64 63.8015 171.33 60.7216 181.5 60.5216L180.59 62.0616L152.05 80.4116ZM193.85 126.052C232.05 106.842 275.92 103.532 318.1 105.762C333.77 106.602 349.05 110.892 363.05 117.792C363.18 118.792 361.89 118.272 361.3 118.192C347.83 116.392 334.5 111.522 320.8 110.702C285.65 108.612 243.98 110.242 210.81 122.832C199.21 127.242 188.53 134.322 176.05 136.332L193.85 126.052ZM404.73 266.662C400.12 272.152 389.31 280.342 383.18 284.382C359.48 299.992 332.47 310.782 304.29 315.082C265.78 320.962 231.69 319.872 218.97 276.942C214.35 261.352 215.69 252.852 227.29 241.872C247.04 223.172 263.27 229.272 285.46 239.332C292.31 242.432 298.55 246.822 305.54 249.582C320.61 241.322 337.79 230.272 355.31 228.672C371.56 227.192 394.47 231.562 404.19 246.002C408.14 251.892 409.62 260.812 404.73 266.662ZM411.87 229.652C407.37 229.882 394.3 225.002 388.8 223.762C371.48 219.882 352.54 217.332 336.52 226.782L304.44 245.982C299.18 242.472 293.71 239.172 288.18 236.062C274.8 228.522 264.68 222.652 248.83 221.432C234.77 220.352 216.46 228.792 203.74 234.672C201.86 235.542 193.73 241.292 192.41 239.422C191.65 238.352 193.67 236.772 194.41 236.242C199.35 232.692 206.81 229.902 212.58 227.962L202.59 223.512C194.13 218.032 190.36 204.132 188.31 194.702C185.56 182.052 186.53 174.542 191.77 162.692C208.74 124.292 253.75 119.332 290.79 121.082C313.84 122.172 347.13 125.002 367.04 136.982C390.47 151.082 400.41 171.292 411.13 195.422C414.78 203.632 417.86 212.102 420.78 220.602C419.91 224.722 416.36 229.412 411.87 229.652Z" fill="black"/>
</svg>
