<svg width="115" height="200" viewBox="0 0 115 200" fill="none" xmlns="http://www.w3.org/2000/svg">
<path d="M112.747 43.8298C105.327 17.8837 78.7363 -1.62023 51.6043 0.106324C-4.98554 3.70957 -18.056 79.9033 27.5476 109.893C33.0033 113.482 39.7735 115.24 43.935 120.375C44.2654 120.781 45.253 122.081 45.3586 122.48C45.6378 123.535 45.5118 127.636 45.4199 128.929C45.0044 134.733 43.0224 141.278 42.2084 147.174C40.8292 157.151 40.4137 166.678 38.2887 176.662C37.4509 180.593 35.9422 184.684 35.2441 188.557C34.3178 193.702 36.1227 196.838 40.8973 198.94C44.5378 200.544 52.3229 200.871 53.4978 195.975C54.5024 191.778 53.8384 186.24 54.9111 181.907C56.1677 168.538 56.4538 154.452 58.79 141.237C62.594 119.723 87.274 115.168 100.481 100.687C113.803 86.0793 118.128 62.6411 112.747 43.8298ZM54.0631 150.9C52.8167 159.806 51.0799 168.582 50.3068 177.566C50.0071 181.043 50.3 185.605 49.6972 188.908C49.2375 191.409 44.9397 190.826 43.0122 190.437C43.0564 185.414 43.8091 180.385 44.3369 175.386C44.9465 169.578 45.8183 163.781 46.4756 157.97C47.8685 145.622 48.965 133.239 50.5759 120.918C53.0789 121.436 55.6126 121.552 58.1702 121.467C56.556 131.236 55.4322 141.09 54.0631 150.9ZM58.4393 118.198C57.9829 118.761 52.1288 118.304 51.3148 117.87C50.7666 117.577 50.7938 117.444 50.8483 116.847C53.3684 117.11 55.8987 117.471 58.4427 117.389C58.4052 117.611 58.5006 118.12 58.4393 118.198ZM22.9127 101.229C-13.5845 70.4311 5.09826 8.36718 52.9597 4.99937C80.8954 3.03055 103.726 21.3846 109.931 48.2827C121.782 99.6529 62.611 134.73 22.9127 101.229ZM52.6907 7.44248C24.3804 9.56144 3.63729 36.3947 6.10631 64.2755C9.7911 105.883 59.1204 127.588 91.1086 99.7211C129.053 66.6709 103.672 3.63109 52.6907 7.44248ZM30.9123 26.9191C32.69 24.8855 37.9107 20.1323 40.4716 19.6512C43.0019 19.1769 46.1248 19.4533 48.2226 20.9922C51.9926 23.7595 50.6235 26.5711 47.8719 29.509C44.9908 32.5833 41.5103 34.7944 38.6497 38.2032C36.2385 41.083 31.1983 50.661 28.3513 51.5209C25.4736 52.3876 23.1749 49.378 22.6675 46.8667C21.4585 40.8749 27.0095 31.372 30.9123 26.9191ZM102.773 42.1408C116.439 77.4772 86.9402 114.711 49.4418 108.337C34.2156 105.75 21.2371 95.9404 17.222 80.7119C17.2186 80.7017 17.2118 80.6915 17.2016 80.6744C17.1062 80.5345 16.735 80.1251 16.9495 79.8998C17.5115 79.3164 17.4536 80.4014 17.491 80.4424C20.6752 83.701 26.8324 81.6128 28.3922 77.6444C29.7612 74.1606 28.1878 69.329 27.3841 65.7769C26.7609 63.013 26.4442 59.6418 24.2783 57.4785C21.3325 54.5304 17.096 54.8955 14.2421 57.7617C13.7551 58.2462 13.4657 59.1778 12.8833 59.5224C12.5087 52.9506 15.0799 46.5835 19.1155 41.5949C19.5514 42.9017 19.0235 44.0823 19.1257 45.5291C19.5241 51.3025 24.6324 58.1985 30.8612 54.5782C34.3587 52.5445 35.2441 49.4701 37.2806 46.3412C39.2082 43.3794 42.3242 39.7932 45.0248 37.5241C48.444 34.6545 52.0607 33.7162 54.0631 29.1916C56.4913 23.7083 53.1947 19.467 50.0344 15.2427C60.5507 12.8201 72.0171 15.5088 81.7536 19.7331C92.9748 24.6023 98.3828 30.7817 102.773 42.1408ZM16.5443 59.7954C16.9189 59.4371 18.2913 58.5875 18.7783 58.4919C22.4393 57.7754 23.5086 62.5524 24.1931 65.1729C24.8129 67.5615 26.2399 73.4338 25.8346 75.6244C25.3749 78.1153 21.8058 80.0329 19.7796 78.2825C16.0982 75.1023 12.6211 63.576 16.5443 59.7954Z" fill="black"/>
</svg>
