<svg width="811" height="304" viewBox="0 0 811 304" fill="none" xmlns="http://www.w3.org/2000/svg">
<path d="M23.8681 268.343C26.7148 269.344 29.7713 269.595 32.7431 269.071C35.7149 268.548 38.5018 267.267 40.8353 265.352C46.7781 260.36 48.6417 252.138 50.1573 244.524L54.6416 222L45.2535 228.469C38.5018 233.121 31.5984 237.923 26.9239 244.661C22.2495 251.4 20.2102 260.599 23.9649 267.891" fill="#2B2B2B"/>
<path d="M25.3174 297.18C24.1358 288.565 22.92 279.838 23.7508 271.131C24.4871 263.397 26.8447 255.845 31.6445 249.651C34.1922 246.369 37.2923 243.558 40.8054 241.343C41.7213 240.764 42.5644 242.217 41.6524 242.793C35.5737 246.637 30.8719 252.314 28.225 259.005C25.3017 266.446 24.8323 274.557 25.3359 282.461C25.6402 287.241 26.287 291.99 26.9365 296.733C26.9878 296.947 26.9558 297.173 26.8469 297.365C26.7381 297.557 26.5605 297.7 26.3502 297.766C26.1356 297.824 25.9069 297.794 25.7136 297.685C25.5204 297.575 25.3782 297.393 25.318 297.179L25.3174 297.18Z" fill="#F2F2F2"/>
<path d="M33.8228 283.356C35.0435 285.214 36.7217 286.725 38.6957 287.745C40.6696 288.765 42.8728 289.259 45.0929 289.179C50.7996 288.908 55.5551 284.924 59.8357 281.14L72.4995 269.951L64.1185 269.549C58.0913 269.26 51.9085 268.989 46.1677 270.851C40.4269 272.714 35.1325 277.188 34.083 283.135" fill="#2B2B2B"/>
<path d="M21.9776 302.133C27.6663 292.059 34.2643 280.864 46.0547 277.286C49.3327 276.294 52.7699 275.939 56.1812 276.239C57.2566 276.332 56.988 277.991 55.9149 277.898C50.1966 277.423 44.4893 278.934 39.7539 282.177C35.3022 285.409 31.5282 289.485 28.646 294.173C26.8064 296.976 25.1588 299.899 23.5111 302.817C22.9846 303.75 21.445 303.076 21.9776 302.133Z" fill="#F2F2F2"/>
<path d="M544.229 255.176C548.149 256.555 552.358 256.9 556.45 256.179C560.543 255.458 564.38 253.694 567.594 251.057C575.777 244.183 578.344 232.861 580.431 222.375L586.606 191.359L573.678 200.267C564.38 206.673 554.874 213.286 548.437 222.565C542 231.844 539.192 244.512 544.362 254.553" fill="#2B2B2B"/>
<path d="M546.225 294.886C544.597 283.023 542.923 271.006 544.067 259.015C545.081 248.365 548.328 237.966 554.938 229.435C558.446 224.917 562.715 221.045 567.553 217.995C568.814 217.198 569.975 219.199 568.719 219.992C560.348 225.286 553.874 233.104 550.229 242.318C546.203 252.564 545.557 263.733 546.25 274.618C546.669 281.2 547.56 287.739 548.454 294.27C548.525 294.566 548.481 294.877 548.331 295.141C548.181 295.405 547.937 295.602 547.647 295.693C547.351 295.773 547.036 295.732 546.77 295.581C546.504 295.43 546.308 295.18 546.226 294.885L546.225 294.886Z" fill="#F2F2F2"/>
<path d="M557.937 275.85C559.618 278.408 561.929 280.489 564.647 281.894C567.366 283.298 570.399 283.978 573.457 283.869C581.315 283.495 587.864 278.009 593.758 272.798L611.197 257.389L599.656 256.837C591.356 256.439 582.842 256.066 574.937 258.63C567.031 261.194 559.741 267.356 558.295 275.545" fill="#2B2B2B"/>
<path d="M541.626 301.706C549.459 287.835 558.545 272.418 574.781 267.491C579.295 266.125 584.029 265.636 588.726 266.05C590.207 266.178 589.837 268.461 588.359 268.334C580.485 267.68 572.626 269.761 566.105 274.226C559.83 278.501 554.943 284.444 550.809 290.745C548.275 294.606 546.006 298.63 543.737 302.648C543.012 303.933 540.892 303.005 541.626 301.706Z" fill="#F2F2F2"/>
<path d="M470.806 46.4563C469.98 46.0962 469.315 45.4447 468.938 44.6258C468.561 43.8069 468.498 42.8778 468.761 42.0153C468.803 41.883 468.83 41.7463 468.84 41.6077C468.864 41.2126 468.761 40.8202 468.544 40.4886C468.328 40.1571 468.011 39.9041 467.64 39.7671C467.269 39.6301 466.863 39.6163 466.484 39.7279C466.104 39.8395 465.771 40.0704 465.532 40.3865C465.45 40.4987 465.382 40.6201 465.329 40.7483C464.969 41.5751 464.318 42.2406 463.5 42.6181C462.681 42.9957 461.753 43.0589 460.891 42.7958C460.759 42.7532 460.622 42.7264 460.484 42.7159C460.089 42.6919 459.697 42.7958 459.366 43.0122C459.034 43.2286 458.781 43.546 458.645 43.9174C458.508 44.2888 458.494 44.6945 458.605 45.0744C458.717 45.4542 458.948 45.788 459.264 46.0264C459.376 46.1083 459.497 46.1768 459.625 46.2303C460.451 46.5903 461.116 47.2418 461.493 48.0607C461.871 48.8796 461.934 49.8088 461.671 50.6713C461.628 50.8035 461.602 50.9403 461.591 51.0788C461.567 51.474 461.671 51.8664 461.887 52.1979C462.103 52.5294 462.421 52.7825 462.792 52.9195C463.163 53.0565 463.568 53.0702 463.948 52.9587C464.327 52.8471 464.661 52.6161 464.899 52.3C464.981 52.1878 465.049 52.0664 465.103 51.9382C465.463 51.1114 466.114 50.446 466.932 50.0684C467.75 49.6909 468.679 49.6276 469.54 49.8907C469.673 49.9333 469.809 49.9601 469.948 49.9706C470.343 49.9947 470.735 49.8908 471.066 49.6744C471.397 49.458 471.65 49.1406 471.787 48.7691C471.924 48.3977 471.938 47.992 471.826 47.6122C471.715 47.2323 471.484 46.8985 471.168 46.6601C471.056 46.5782 470.935 46.5098 470.806 46.4563Z" fill="#CBCBCB"/>
<path d="M540.754 209.456C539.928 209.096 539.263 208.445 538.885 207.626C538.508 206.807 538.445 205.878 538.708 205.015C538.75 204.883 538.777 204.746 538.788 204.608C538.812 204.213 538.708 203.82 538.492 203.489C538.275 203.157 537.958 202.904 537.587 202.767C537.216 202.63 536.811 202.616 536.431 202.728C536.051 202.839 535.718 203.07 535.48 203.387C535.398 203.499 535.329 203.62 535.276 203.748C534.916 204.575 534.265 205.241 533.447 205.618C532.629 205.996 531.7 206.059 530.838 205.796C530.706 205.753 530.569 205.726 530.431 205.716C530.036 205.692 529.644 205.796 529.313 206.012C528.982 206.229 528.729 206.546 528.592 206.917C528.455 207.289 528.441 207.695 528.553 208.074C528.664 208.454 528.895 208.788 529.211 209.026C529.323 209.108 529.444 209.177 529.572 209.23C530.398 209.59 531.063 210.242 531.441 211.061C531.818 211.88 531.881 212.809 531.618 213.671C531.576 213.804 531.549 213.94 531.538 214.079C531.514 214.474 531.618 214.866 531.834 215.198C532.051 215.529 532.368 215.782 532.739 215.919C533.11 216.056 533.516 216.07 533.895 215.959C534.275 215.847 534.608 215.616 534.846 215.3C534.928 215.188 534.997 215.066 535.05 214.938C535.41 214.111 536.061 213.446 536.879 213.068C537.697 212.691 538.626 212.628 539.488 212.891C539.62 212.933 539.757 212.96 539.895 212.971C540.29 212.995 540.682 212.891 541.013 212.674C541.345 212.458 541.597 212.141 541.734 211.769C541.871 211.398 541.885 210.992 541.773 210.612C541.662 210.232 541.431 209.898 541.115 209.66C541.003 209.578 540.882 209.51 540.754 209.456Z" fill="#F1F1F1"/>
<path d="M174.032 114.456C173.205 114.096 172.54 113.445 172.163 112.626C171.786 111.807 171.723 110.878 171.986 110.015C172.028 109.883 172.055 109.746 172.065 109.608C172.09 109.213 171.986 108.82 171.769 108.489C171.553 108.157 171.236 107.904 170.865 107.767C170.494 107.63 170.088 107.616 169.709 107.728C169.329 107.839 168.996 108.07 168.758 108.387C168.676 108.499 168.607 108.62 168.554 108.748C168.194 109.575 167.543 110.241 166.725 110.618C165.906 110.996 164.978 111.059 164.116 110.796C163.984 110.753 163.847 110.726 163.709 110.716C163.314 110.692 162.922 110.796 162.591 111.012C162.259 111.229 162.007 111.546 161.87 111.917C161.733 112.289 161.719 112.695 161.83 113.074C161.942 113.454 162.173 113.788 162.489 114.026C162.601 114.108 162.722 114.177 162.85 114.23C163.676 114.59 164.341 115.242 164.718 116.061C165.096 116.88 165.159 117.809 164.896 118.671C164.854 118.804 164.827 118.94 164.816 119.079C164.792 119.474 164.896 119.866 165.112 120.198C165.328 120.529 165.646 120.782 166.017 120.919C166.388 121.056 166.793 121.07 167.173 120.959C167.552 120.847 167.886 120.616 168.124 120.3C168.206 120.188 168.274 120.066 168.328 119.938C168.688 119.111 169.339 118.446 170.157 118.068C170.975 117.691 171.904 117.628 172.766 117.891C172.898 117.933 173.034 117.96 173.173 117.971C173.568 117.995 173.96 117.891 174.291 117.674C174.622 117.458 174.875 117.141 175.012 116.769C175.149 116.398 175.163 115.992 175.051 115.612C174.94 115.232 174.709 114.898 174.393 114.66C174.281 114.578 174.16 114.51 174.032 114.456Z" fill="#F1F1F1"/>
<path d="M327.02 56C330.332 56 333.016 53.3137 333.016 50C333.016 46.6863 330.332 44 327.02 44C323.709 44 321.025 46.6863 321.025 50C321.025 53.3137 323.709 56 327.02 56Z" fill="#F1F1F1"/>
<path d="M646.778 40C650.089 40 652.774 37.3137 652.774 34C652.774 30.6863 650.089 28 646.778 28C643.467 28 640.783 30.6863 640.783 34C640.783 37.3137 643.467 40 646.778 40Z" fill="#A1EBF7"/>
<path d="M181.131 12C184.442 12 187.126 9.31371 187.126 6C187.126 2.68629 184.442 0 181.131 0C177.82 0 175.135 2.68629 175.135 6C175.135 9.31371 177.82 12 181.131 12Z" fill="#CBCBCB"/>
<path d="M158.074 284.691C181.842 284.691 201.109 265.409 201.109 241.623C201.109 217.838 181.842 198.556 158.074 198.556C134.307 198.556 115.04 217.838 115.04 241.623C115.04 265.409 134.307 284.691 158.074 284.691Z" fill="#2F2E41"/>
<path d="M151.538 275.423H138.464V298.865H151.538V275.423Z" fill="#2F2E41"/>
<path d="M177.685 275.423H164.611V298.865H177.685V275.423Z" fill="#2F2E41"/>
<path d="M149.359 303.226C155.376 303.226 160.254 301.396 160.254 299.137C160.254 296.879 155.376 295.049 149.359 295.049C143.342 295.049 138.464 296.879 138.464 299.137C138.464 301.396 143.342 303.226 149.359 303.226Z" fill="#2F2E41"/>
<path d="M175.506 302.681C181.523 302.681 186.401 300.85 186.401 298.592C186.401 296.334 181.523 294.504 175.506 294.504C169.489 294.504 164.611 296.334 164.611 298.592C164.611 300.85 169.489 302.681 175.506 302.681Z" fill="#2F2E41"/>
<path d="M204.449 222.804C213.769 213.47 218.95 203.529 216.022 200.601C213.094 197.673 203.165 202.866 193.845 212.201C184.526 221.535 179.344 231.475 182.272 234.403C185.2 237.331 195.129 232.138 204.449 222.804Z" fill="#2F2E41"/>
<path d="M123.387 237.403C126.315 234.475 121.134 224.535 111.814 215.201C102.494 205.866 92.5647 200.673 89.6367 203.601C86.7086 206.529 91.8903 216.47 101.21 225.804C110.53 235.138 120.459 240.331 123.387 237.403Z" fill="#2F2E41"/>
<path d="M156.264 250.239C164.387 250.239 170.972 243.649 170.972 235.52C170.972 227.391 164.387 220.801 156.264 220.801C148.141 220.801 141.556 227.391 141.556 235.52C141.556 243.649 148.141 250.239 156.264 250.239Z" fill="white"/>
<path d="M167.939 262.743C168.394 265.241 167.838 267.817 166.394 269.904C164.951 271.992 162.738 273.42 160.242 273.875C157.746 274.33 155.172 273.773 153.086 272.329C151 270.884 149.573 268.669 149.118 266.172L149.115 266.153C148.174 260.951 152.193 259.11 157.391 258.168C162.589 257.227 166.998 257.541 167.939 262.743Z" fill="white"/>
<path d="M200.273 286.823C199.304 286.825 198.375 287.21 197.69 287.896C197.006 288.581 196.62 289.51 196.619 290.48V298.117C196.62 299.087 197.006 300.016 197.69 300.701C198.375 301.387 199.304 301.772 200.273 301.773H259.058C260.027 301.772 260.955 301.387 261.64 300.701C262.325 300.016 262.71 299.087 262.711 298.117V290.48C262.71 289.51 262.325 288.581 261.64 287.896C260.955 287.21 260.027 286.825 259.058 286.823H200.273Z" fill="#E5E5E5"/>
<path d="M234.079 281.737C233.715 281.527 233.283 281.47 232.877 281.579C232.471 281.688 232.125 281.953 231.915 282.318L229.73 286.104L227.589 281.87C227.4 281.495 227.069 281.211 226.669 281.079C226.27 280.948 225.835 280.981 225.46 281.171C225.085 281.361 224.801 281.692 224.67 282.092C224.539 282.491 224.572 282.927 224.762 283.302L226.428 286.597H225.817V302H233.966V286.597H233.105L234.659 283.903C234.869 283.539 234.926 283.106 234.817 282.7C234.708 282.294 234.443 281.948 234.079 281.737Z" fill="#A1EBF7"/>
<path d="M156.966 213.375C149.32 213.367 141.718 212.205 134.418 209.928C133.911 209.764 133.469 209.444 133.154 209.013C132.84 208.583 132.669 208.064 132.667 207.53V190C132.668 189.337 132.932 188.702 133.4 188.233C133.868 187.764 134.503 187.501 135.166 187.5H179.132C179.795 187.501 180.43 187.764 180.898 188.233C181.366 188.702 181.63 189.337 181.63 190V207.52C181.631 208.058 181.458 208.582 181.138 209.014C180.818 209.446 180.367 209.763 179.853 209.919C172.435 212.188 164.723 213.352 156.966 213.375Z" fill="#A1EBF7"/>
<path opacity="0.2" d="M181.131 190V192.93L157.339 201.28C156.894 201.434 156.41 201.426 155.97 201.26L133.167 192.69V190C133.169 189.47 133.38 188.962 133.754 188.587C134.128 188.213 134.636 188.002 135.165 188H179.132C179.662 188.002 180.169 188.213 180.544 188.587C180.918 188.962 181.129 189.47 181.131 190Z" fill="black"/>
<path d="M156.673 197.892C156.373 197.892 156.076 197.838 155.795 197.733L121.72 184.928C121.238 184.747 120.824 184.422 120.534 183.996C120.244 183.57 120.092 183.066 120.1 182.551C120.107 182.036 120.274 181.536 120.576 181.119C120.879 180.702 121.302 180.389 121.789 180.222L153.85 169.246C154.368 169.07 154.929 169.068 155.449 169.239L191.232 181.176C191.726 181.341 192.156 181.656 192.463 182.078C192.769 182.5 192.936 183.007 192.94 183.528C192.944 184.05 192.785 184.559 192.485 184.986C192.185 185.412 191.76 185.734 191.268 185.907L157.499 197.752C157.233 197.844 156.954 197.892 156.673 197.892Z" fill="#A1EBF7"/>
<path d="M125.673 197H124.674V182.5H155.151V183.5H125.673V197Z" fill="#3F3D56"/>
<path d="M125.173 200C126.277 200 127.172 199.105 127.172 198C127.172 196.895 126.277 196 125.173 196C124.07 196 123.175 196.895 123.175 198C123.175 199.105 124.07 200 125.173 200Z" fill="#3F3D56"/>
<path d="M406.886 284.691C430.653 284.691 449.921 265.409 449.921 241.623C449.921 217.838 430.653 198.556 406.886 198.556C383.118 198.556 363.851 217.838 363.851 241.623C363.851 265.409 383.118 284.691 406.886 284.691Z" fill="#2F2E41"/>
<path d="M400.349 275.423H387.275V298.865H400.349V275.423Z" fill="#2F2E41"/>
<path d="M426.497 275.423H413.423V298.865H426.497V275.423Z" fill="#2F2E41"/>
<path d="M398.17 303.226C404.187 303.226 409.065 301.396 409.065 299.137C409.065 296.879 404.187 295.049 398.17 295.049C392.153 295.049 387.275 296.879 387.275 299.137C387.275 301.396 392.153 303.226 398.17 303.226Z" fill="#2F2E41"/>
<path d="M424.318 302.681C430.335 302.681 435.213 300.85 435.213 298.592C435.213 296.334 430.335 294.504 424.318 294.504C418.301 294.504 413.423 296.334 413.423 298.592C413.423 300.85 418.301 302.681 424.318 302.681Z" fill="#2F2E41"/>
<path d="M453.26 222.804C462.58 213.47 467.762 203.529 464.834 200.601C461.906 197.673 451.977 202.866 442.657 212.201C433.337 221.535 428.155 231.475 431.083 234.403C434.012 237.331 443.94 232.138 453.26 222.804Z" fill="#2F2E41"/>
<path d="M368.474 262.78C375.995 251.942 379.335 241.24 375.935 238.877C372.535 236.514 363.682 243.386 356.162 254.224C348.641 265.063 345.301 275.765 348.701 278.128C352.101 280.49 360.954 273.619 368.474 262.78Z" fill="#2F2E41"/>
<path d="M405.075 250.239C413.198 250.239 419.783 243.649 419.783 235.52C419.783 227.391 413.198 220.801 405.075 220.801C396.952 220.801 390.367 227.391 390.367 235.52C390.367 243.649 396.952 250.239 405.075 250.239Z" fill="white"/>
<path d="M422.709 262.743C424.152 267.944 418.896 272.928 410.97 273.875C403.044 274.822 395.449 271.373 394.007 266.172L394.001 266.153C392.566 260.951 398.696 259.11 406.623 258.168C414.55 257.227 421.274 257.541 422.709 262.743Z" fill="white"/>
<path d="M391.828 216.276C384.731 219.124 377.245 220.884 369.623 221.496C369.092 221.534 368.562 221.402 368.109 221.12C367.657 220.838 367.306 220.42 367.105 219.926L360.57 203.661C360.324 203.046 360.331 202.358 360.591 201.748C360.851 201.138 361.342 200.657 361.956 200.409L402.748 183.994C403.363 183.747 404.051 183.755 404.66 184.015C405.269 184.275 405.75 184.766 405.998 185.381L412.529 201.636C412.73 202.135 412.765 202.685 412.629 203.206C412.493 203.726 412.194 204.189 411.775 204.526C405.737 209.4 399.017 213.359 391.828 216.276Z" fill="#A1EBF7"/>
<path opacity="0.2" d="M405.535 185.567L406.627 188.286L387.665 204.916C387.31 205.224 386.858 205.398 386.388 205.408L362.036 205.97L361.034 203.474C360.838 202.982 360.844 202.432 361.052 201.945C361.259 201.457 361.652 201.072 362.142 200.873L402.935 184.458C403.427 184.262 403.976 184.268 404.463 184.476C404.951 184.684 405.336 185.076 405.535 185.567Z" fill="black"/>
<path d="M385.785 202.02C385.506 202.133 385.21 202.194 384.911 202.201L348.522 203.043C348.008 203.055 347.502 202.907 347.074 202.62C346.647 202.334 346.318 201.922 346.133 201.441C345.948 200.961 345.916 200.435 346.041 199.935C346.166 199.436 346.443 198.987 346.832 198.65L372.487 176.496C372.902 176.14 373.422 175.928 373.967 175.893L411.617 173.609C412.137 173.577 412.654 173.709 413.095 173.986C413.537 174.263 413.88 174.672 414.079 175.154C414.277 175.636 414.319 176.168 414.2 176.676C414.081 177.184 413.806 177.641 413.414 177.985L386.499 201.582C386.287 201.767 386.046 201.916 385.785 202.02Z" fill="#A1EBF7"/>
<path d="M356.69 212.767L355.763 213.14L350.358 199.687L378.634 188.308L379.007 189.236L351.657 200.242L356.69 212.767Z" fill="#3F3D56"/>
<path d="M356.599 215.881C357.703 215.881 358.598 214.986 358.598 213.881C358.598 212.777 357.703 211.881 356.599 211.881C355.495 211.881 354.601 212.777 354.601 213.881C354.601 214.986 355.495 215.881 356.599 215.881Z" fill="#3F3D56"/>
<path d="M570.719 139.869C564.232 135.818 558.393 130.811 553.399 125.016C553.055 124.609 552.848 124.103 552.809 123.571C552.769 123.039 552.899 122.508 553.179 122.055L562.437 107.173C562.788 106.611 563.347 106.211 563.992 106.061C564.637 105.911 565.316 106.023 565.878 106.372L603.202 129.628C603.764 129.979 604.163 130.539 604.313 131.184C604.463 131.83 604.352 132.509 604.002 133.072L594.749 147.945C594.465 148.401 594.042 148.755 593.542 148.952C593.042 149.15 592.492 149.181 591.973 149.041C584.477 147.043 577.316 143.953 570.719 139.869Z" fill="#A1EBF7"/>
<path opacity="0.2" d="M603.578 132.807L602.031 135.295L577.424 129.798C576.965 129.694 576.558 129.431 576.272 129.057L561.441 109.721L562.862 107.437C563.143 106.988 563.59 106.669 564.106 106.549C564.622 106.429 565.164 106.518 565.614 106.797L602.938 130.053C603.387 130.334 603.706 130.782 603.826 131.298C603.946 131.814 603.857 132.357 603.578 132.807Z" fill="black"/>
<path d="M578.648 126.57C578.393 126.411 578.169 126.209 577.986 125.971L555.822 97.0769C555.509 96.6683 555.329 96.1729 555.308 95.6583C555.286 95.1437 555.424 94.6351 555.703 94.2019C555.981 93.7688 556.387 93.4323 556.863 93.2384C557.34 93.0445 557.865 93.0027 558.367 93.1187L591.381 100.759C591.913 100.884 592.391 101.179 592.741 101.599L616.813 130.659C617.146 131.061 617.344 131.556 617.382 132.076C617.419 132.596 617.293 133.115 617.021 133.56C616.749 134.005 616.345 134.353 615.865 134.557C615.385 134.76 614.854 134.808 614.345 134.695L579.423 126.888C579.148 126.826 578.886 126.719 578.648 126.57Z" fill="#A1EBF7"/>
<path d="M552.802 109.416L551.954 108.887L559.612 96.578L585.485 112.699L584.956 113.547L559.932 97.955L552.802 109.416Z" fill="#3F3D56"/>
<path d="M551.85 112C552.954 112 553.849 111.105 553.849 110C553.849 108.896 552.954 108 551.85 108C550.746 108 549.852 108.896 549.852 110C549.852 111.105 550.746 112 551.85 112Z" fill="#3F3D56"/>
<path d="M674.831 235.691C698.598 235.691 717.865 216.409 717.865 192.623C717.865 168.838 698.598 149.556 674.831 149.556C651.063 149.556 631.796 168.838 631.796 192.623C631.796 216.409 651.063 235.691 674.831 235.691Z" fill="#2F2E41"/>
<path d="M704.665 214.954L693.509 221.777L705.724 241.779L716.88 234.956L704.665 214.954Z" fill="#2F2E41"/>
<path d="M682.354 228.6L671.198 235.423L683.413 255.425L694.569 248.602L682.354 228.6Z" fill="#2F2E41"/>
<path d="M709.856 244.363C714.99 241.223 718.199 237.116 717.022 235.189C715.845 233.262 710.729 234.246 705.595 237.386C700.461 240.526 697.253 244.633 698.429 246.56C699.606 248.487 704.722 247.503 709.856 244.363Z" fill="#2F2E41"/>
<path d="M687.261 257.544C692.395 254.404 695.603 250.296 694.427 248.369C693.25 246.443 688.134 247.426 683 250.566C677.866 253.707 674.657 257.814 675.834 259.741C677.011 261.668 682.127 260.684 687.261 257.544Z" fill="#2F2E41"/>
<path d="M650.633 185.403C653.561 182.475 648.38 172.535 639.06 163.201C629.74 153.867 619.811 148.673 616.883 151.601C613.955 154.529 619.136 164.47 628.456 173.804C637.776 183.138 647.705 188.331 650.633 185.403Z" fill="#2F2E41"/>
<path d="M733.015 229.127C736.415 226.765 733.075 216.063 725.555 205.224C718.035 194.386 709.182 187.514 705.782 189.877C702.382 192.24 705.722 202.941 713.242 213.78C720.763 224.619 729.615 231.49 733.015 229.127Z" fill="#2F2E41"/>
<path d="M661.652 195.239C669.775 195.239 676.36 188.649 676.36 180.52C676.36 172.391 669.775 165.801 661.652 165.801C653.529 165.801 646.944 172.391 646.944 180.52C646.944 188.649 653.529 195.239 661.652 195.239Z" fill="white"/>
<path d="M642.713 205.073C639.924 209.646 643.64 215.833 651.013 218.891C658.386 221.95 666.624 220.722 669.413 216.149L669.423 216.133C672.204 211.557 666.801 208.133 659.426 205.079C652.05 202.025 645.494 200.497 642.713 205.073Z" fill="white"/>
<path d="M660.391 138.547C664.233 123.06 681.196 113.946 698.277 118.191C715.358 122.436 726.09 138.431 722.247 153.918C718.405 169.405 705.656 169.455 688.575 165.211C671.494 160.966 656.548 154.034 660.391 138.547Z" fill="#2B2B2B"/>
</svg>
