<svg width="483" height="469" viewBox="0 0 483 469" fill="none" xmlns="http://www.w3.org/2000/svg">
<path d="M478.245 294.399C473.225 286.669 450.765 269.279 442.235 264.769C420.395 253.229 387.995 248.689 364.185 255.019C346.995 259.599 330.785 268.749 317.095 279.929C286.935 269.869 253.025 265.379 221.975 274.169C204.295 279.169 190.545 289.149 178.575 302.779C171.785 296.299 165.375 299.009 158.515 303.619C159.035 292.419 158.265 282.099 155.755 271.209C150.215 247.209 130.045 213.999 136.115 189.949C137.435 184.759 140.535 179.169 142.265 173.939C145.485 164.109 147.615 151.979 153.895 143.669C157.665 138.679 163.915 135.609 168.415 131.289H169.575C170.355 136.099 173.655 137.019 177.985 137.509C185.785 138.379 209.065 138.119 216.025 135.409C219.815 133.929 221.855 128.959 222.335 128.849C223.695 128.589 225.845 129.809 227.685 129.719C230.965 129.589 239.485 128.179 242.545 127.119C245.965 125.929 247.885 122.829 250.705 121.839C259.295 118.849 263.955 124.199 271.025 123.189C277.135 122.309 289.875 116.579 290.585 109.459C291.155 103.779 285.905 101.539 284.105 97.8389C282.265 94.0789 282.395 87.9089 283.045 83.7989C283.775 79.2289 288.105 72.2389 288.205 69.1189C288.235 68.1889 286.525 62.4889 286.075 61.0889C282.975 51.0489 258.595 10.9889 250.635 4.80886C247.485 2.35886 242.995 -0.12116 238.905 0.09884C236.165 0.22884 233.015 2.09885 230.105 2.41885C225.365 2.93885 219.985 1.96884 215.155 2.50884C202.145 3.94884 182.225 13.7589 169.195 18.2389C155.805 22.8689 138.345 26.2288 126.155 32.9488C117.845 37.5188 86.9151 69.8388 81.4451 78.3888C75.5251 87.6288 74.9451 93.8289 75.4551 104.779C75.7751 111.359 76.8951 109.479 75.1951 116.409C67.5251 147.839 52.5251 191.659 38.9551 220.899C20.1051 261.489 -8.78488 320.489 2.90512 366.259C4.39512 372.079 9.09513 380.109 9.72513 384.739C11.0051 394.039 8.86514 405.489 9.08514 414.629C9.20514 419.579 12.5351 424.909 16.1051 428.169C22.4151 433.969 54.8651 449.759 63.2951 450.579C67.4751 450.989 71.5151 450.459 75.6251 449.649C85.4851 447.689 84.4751 446.339 95.4051 449.319C113.285 454.189 124.065 459.369 143.875 457.769C147.525 457.479 161.425 453.509 162.725 453.779C163.475 453.939 163.655 455.619 164.395 456.229C167.095 458.379 178.155 461.309 182.075 462.309C230.705 474.799 286.475 466.759 329.605 441.429C340.525 441.979 354.535 444.269 361.695 453.549C364.555 457.249 364.715 463.439 368.135 466.489C368.755 448.289 357.735 433.659 346.125 420.919C348.485 413.989 353.375 408.459 358.665 403.649C366.395 402.659 374.255 403.529 382.015 403.269C384.905 403.179 392.795 400.779 394.715 403.209C386.605 421.569 392.305 440.839 402.545 456.999C403.585 456.479 402.575 454.819 402.375 454.009C400.095 445.149 396.285 436.739 395.865 427.219C399.185 418.399 406.935 413.309 416.745 415.129C419.455 415.639 429.145 425.039 430.625 423.789C425.215 416.189 418.685 409.269 414.385 400.909C408.845 390.129 407.115 377.469 402.565 367.659C397.935 357.709 394.715 369.909 392.215 373.939C376.175 399.539 351.925 395.559 327.795 385.469C325.825 384.639 325.115 382.769 323.065 382.699C322.485 383.269 325.965 387.489 326.605 388.239C331.845 394.399 337.785 399.419 345.995 400.889C346.315 401.309 343.875 407.689 343.195 408.749C340.775 412.479 324.795 424.669 320.445 426.329C311.905 429.559 299.735 429.969 290.625 430.929C290.245 433.179 291.085 432.249 292.455 432.629C295.415 433.429 298.665 433.689 301.705 434.089C294.425 447.689 278.515 447.909 264.925 448.329C246.495 448.879 226.845 447.469 210.485 437.889C203.015 433.509 193.035 426.679 190.155 418.279C184.585 422.009 179.235 426.199 173.495 429.679C157.235 439.479 136.645 446.269 117.855 448.369C115.365 448.649 113.285 450.209 110.285 449.099L113.435 441.989L108.735 447.979L104.765 446.339L113.435 432.499C111.955 432.169 111.565 433.339 110.675 434.079C108.345 436.009 99.1351 447.449 96.0451 443.549C100.615 439.659 104.095 434.179 106.315 428.539C102.705 429.889 95.3051 441.059 93.2651 441.979C92.9151 442.119 91.9751 442.169 92.0951 441.589L93.6751 438.819C85.3551 442.459 76.8851 440.489 68.3551 438.429C56.2351 435.499 43.9951 429.899 34.1451 422.249C33.0551 421.389 32.8651 419.739 31.5051 419.089C27.0951 420.119 29.7351 424.119 29.2151 426.959C24.7951 423.459 18.5551 414.019 18.6551 408.369C18.7151 405.499 21.3651 403.629 21.7051 400.889C43.0551 429.359 88.4851 426.089 96.8251 388.609C95.5751 387.029 95.5151 388.609 95.0251 389.229C85.0951 401.979 80.4951 414.809 61.0851 410.929C26.2951 403.969 15.6651 351.959 18.5351 322.229C23.0451 275.319 41.0451 234.359 60.3151 192.439C63.4151 185.669 67.3151 179.209 70.3051 172.379C75.2951 161.039 80.2551 148.179 82.6051 136.049C85.9851 140.569 92.6151 143.329 98.0351 144.719C98.4751 144.839 99.3251 144.949 99.2051 144.339L90.5051 136.839L100.785 140.769C95.9151 136.769 91.4651 131.659 85.7651 128.909L87.3351 127.749C86.6951 126.489 84.6951 123.779 84.5351 122.649C84.3751 121.589 85.6551 120.899 85.7551 119.819C86.3451 113.029 86.0051 109.859 88.2051 102.499C93.0651 86.2689 103.565 75.0288 112.275 60.9488C113.855 59.2788 113.665 60.4288 113.115 61.7888C112.275 63.8088 111.175 65.8388 110.575 67.9488C110.195 69.2988 109.795 70.5188 111.455 68.8188L120.565 52.6189C123.825 51.8689 126.785 53.3689 130.455 53.0289C137.345 52.3889 157.095 42.1188 164.085 38.4088C172.595 33.9088 188.285 22.2789 196.125 19.8289C196.535 19.6989 197.415 19.6089 197.285 20.2089L190.175 26.5489C190.045 27.1389 190.945 27.0589 191.335 26.9289C196.305 25.3289 204.905 16.5789 210.345 14.2989C210.705 14.1589 211.655 14.0988 211.515 14.6888L203.615 21.3989C210.285 20.1789 218.365 12.1489 224.625 11.1789C232.475 9.94886 240.205 12.4289 246.745 16.6489C255.225 30.2189 266.565 43.0388 274.825 56.5688C278.905 63.2388 286.625 74.2488 273.225 74.3788C272.995 76.7688 277.355 74.3089 276.385 76.3389C275.505 78.1789 268.585 82.4489 266.905 84.6489C268.185 79.1189 264.705 75.9588 263.115 71.4388C258.735 58.8388 253.735 46.7089 248.835 34.3089L243.965 26.1588C245.185 32.5588 242.715 37.4088 243.135 43.9688C244.225 60.3088 256.475 70.4188 261.205 85.1988C256.985 91.5488 252.445 100.169 246.355 104.839C242.255 107.969 237.115 109.069 232.885 111.929L245.545 111.539C242.845 117.939 233.755 121.309 227.345 119.429C229.665 100.909 250.835 97.8888 241.975 76.7588C240.205 72.5388 237.075 68.2589 235.115 63.8389C230.665 53.7489 230.085 49.1189 228.835 38.4989C228.485 35.5989 227.295 30.6688 224.805 35.0788C223.615 37.1988 217.855 50.8388 217.985 52.4388C221.215 61.3188 226.865 68.8588 231.425 77.0088C232.995 79.7888 233.915 83.2688 235.365 85.7288C236.115 87.0188 238.915 89.0388 238.975 89.7888C239.015 90.1988 235.565 96.3388 235.005 97.0688C233.365 99.1388 225.105 107.629 222.985 109.159C218.085 112.729 212.065 112.629 206.775 115.089C211.705 116.999 217.535 116.629 222.595 115.479C222.565 118.829 220.285 121.739 217.825 123.759C207.365 125.459 194.225 130.329 183.615 127.969C175.715 126.199 180.945 115.889 177.075 111.499C175.725 111.269 174.825 112.599 173.795 112.829C166.635 114.379 159.665 118.619 151.705 119.339C133.025 121.049 124.735 111.119 113.025 98.8888C112.215 101.179 114.225 104.589 115.385 106.809C123.085 121.619 137.055 124.529 152.615 124.209C154.415 124.179 156.555 123.119 157.985 123.349C158.275 123.389 161.045 126.659 162.455 126.949C162.455 129.549 144.935 132.739 142.295 132.869C137.075 133.119 133.925 131.669 129.255 129.719C131.535 136.679 134.935 143.249 135.565 150.679C136.175 157.819 134.735 164.809 134.695 171.909L126.055 213.879C137.715 245.759 150.855 283.849 148.275 318.299C147.785 324.829 146.055 330.159 141.905 335.249C153.785 331.609 154.185 318.109 160.105 309.519C162.415 308.319 168.405 312.869 169.195 314.679C169.685 315.799 167.975 317.639 168.065 319.069C168.135 320.529 170.325 322.839 168.805 325.759L177.495 316.289C175.795 320.409 172.275 323.669 170.245 327.599C166.725 334.399 165.865 341.649 164.905 349.159C164.705 350.709 165.075 350.309 166.415 350.259C169.255 337.559 177.085 327.199 185.815 317.859L177.855 339.159L178.295 342.349C181.735 331.779 189.255 323.579 194.895 314.269L191.745 313.099C200.405 304.199 212.435 303.829 223.545 300.219C224.385 299.939 225.935 300.029 225.745 298.869H210.325C209.805 298.869 205.355 299.779 204.335 300.019C195.025 302.109 186.165 308.579 179.085 314.679C178.735 313.199 179.915 312.809 180.655 311.919C183.065 309.049 187.185 305.679 190.135 303.199C205.565 290.279 217.135 285.549 237.325 283.169C275.235 278.689 315.495 286.879 347.555 307.579H344.405C342.835 309.759 354.995 319.079 357.065 321.369C360.385 325.039 362.545 329.869 366.535 332.859L358.635 318.229L362.595 317.849C362.665 316.489 362.745 315.209 362.175 313.909C361.975 313.449 356.925 306.409 356.255 305.599C351.805 300.179 345.185 296.379 339.665 292.159C339.575 289.509 358.745 284.309 361.945 283.599C375.795 280.509 389.325 278.929 402.925 283.849C400.475 281.229 387.975 274.369 385.135 274.369H371.295L376.395 271.979C389.245 267.949 401.555 266.189 414.955 268.279C416.315 268.499 435.225 272.719 432.985 274.369L421.915 275.169C420.345 276.709 449.835 289.159 451.915 290.629C471.985 304.899 466.055 325.959 463.245 346.139C463.125 346.999 462.375 348.869 463.825 348.679C464.765 345.709 467.715 343.709 469.175 340.989C472.525 334.779 480.105 316.629 481.665 309.979C483.375 302.669 482.175 300.439 478.225 294.379L478.245 294.399ZM265.305 87.0289L273.995 96.1189C276.325 102.659 282.525 103.859 279.155 111.539C278.805 112.339 276.665 115.629 276.135 116.039C273.435 118.219 265.045 118.929 262.565 116.239C254.005 106.959 261.285 96.3389 265.305 87.0289Z" fill="black"/>
<path d="M136.356 322.609C132.486 321.029 128.456 319.429 125.026 316.949C111.296 306.969 102.766 298.589 104.796 280.399C105.416 274.869 116.156 241.519 120.936 241.199C122.616 241.079 121.456 243.429 121.376 243.979C119.086 258.209 117.746 273.039 120.786 287.199C123.526 300.019 131.066 310.819 136.366 322.599L136.356 322.609Z" fill="black"/>
<path d="M219.075 96.5789C218.145 100.449 204.095 115.109 200.395 117.429C192.235 122.559 180.105 119.659 178.275 109.179C183.975 111.409 185.075 115.039 192.135 114.749C200.605 114.399 207.465 101.129 213.725 96.1289C206.775 87.8889 195.885 72.7989 198.225 61.5089C198.635 59.5489 200.795 56.1389 201.585 53.8089C202.395 51.4489 202.335 48.4389 203.395 46.1389C203.885 45.0689 203.465 44.8789 205.165 45.1389C205.735 53.1189 207.365 62.2989 210.095 69.8689C212.575 76.7989 220.765 89.4889 219.055 96.5789H219.075Z" fill="black"/>
<path d="M200.004 414.349C200.944 416.869 203.324 418.729 203.584 421.439C191.734 411.639 184.184 393.669 190.154 378.749C191.314 378.619 191.574 380.819 191.664 381.579C192.184 386.189 192.494 390.769 193.314 395.359L195.674 389.039C200.344 404.529 208.534 420.419 220.994 430.919C211.744 428.699 204.284 420.409 200.414 411.969C198.964 411.779 199.714 413.639 199.994 414.359L200.004 414.349Z" fill="black"/>
<path d="M194.896 98.8789C192.486 98.9189 191.536 96.5289 188.996 96.4689C179.826 96.2989 173.726 102.229 162.036 101.279C159.816 101.109 153.186 100.219 152.926 97.6989C152.386 92.5389 159.986 96.219 162.856 96.499C164.206 96.639 171.736 97.149 170.776 94.929L167.996 90.9889C171.806 89.5489 174.016 91.669 177.496 92.559C176.436 91.039 169.596 85.1889 174.016 83.9189C176.626 83.1689 184.976 92.5889 188.566 93.3589L188.956 91.7589C191.526 93.4089 194.616 95.5689 194.906 98.8789H194.896Z" fill="black"/>
<path d="M65.9555 275.969C64.2755 276.379 64.1855 275.029 63.4055 274.169C54.8655 264.729 46.1055 247.429 46.9155 234.429C46.9855 233.399 48.3355 226.829 50.1255 228.539C52.0655 233.619 51.7455 239.069 52.8855 244.379C55.2755 255.659 60.1555 266.099 65.9655 275.969H65.9555Z" fill="black"/>
<path d="M390.195 408.719C389.845 409.259 380.435 410.429 377.635 411.559C371.295 414.139 368.805 419.459 361.435 419.069C358.755 418.919 355.855 417.579 353.095 417.469C352.455 414.819 356.775 416.119 358.825 415.689C366.325 414.119 366.715 411.849 372.325 408.629C375.455 406.829 387.625 401.829 389.885 405.609C390.305 406.339 390.595 408.099 390.185 408.709L390.195 408.719Z" fill="black"/>
<path d="M141.505 338.419C141.625 341.989 137.215 346.269 134.165 347.699C130.045 349.659 118.475 351.379 114.675 348.789C113.485 347.989 114.255 345.379 115.405 344.759C119.305 344.309 124.365 345.379 128.065 344.759C131.825 344.139 137.445 339.379 141.505 338.419Z" fill="black"/>
<path d="M357.845 338.429C354.275 334.019 353.505 327.599 349.825 323.129C347.765 320.649 342.605 318.969 346.475 315.559C349.475 314.599 352.885 319.749 354.035 322.089C356.415 326.889 357.165 333.159 357.845 338.429Z" fill="black"/>
<path d="M191.726 324.989L190.466 331.239L182.256 346.339C182.746 339.289 183.406 327.019 191.726 324.989Z" fill="black"/>
<path d="M88.1057 200.079C82.4257 194.019 74.4757 187.029 75.4557 177.949L77.9957 179.749L88.1057 200.079Z" fill="black"/>
<path d="M190.985 346.769C190.055 349.899 190.365 354.539 187.775 356.619V342.779C187.775 340.919 190.165 334.729 192.895 335.269C196.285 335.939 191.575 344.809 190.985 346.769Z" fill="black"/>
<path d="M59.575 244.819L58.055 246.719C57.795 244.939 54.875 240.589 54.875 239.219V222.219C56.945 222.049 56.195 222.099 56.445 223.409C57.765 230.469 58.345 237.719 59.575 244.819Z" fill="black"/>
<path d="M368.115 421.829C364.755 426.759 359.185 425.529 354.175 423.919C353.115 423.589 351.765 423.659 351.525 422.239C353.545 422.909 368.205 418.829 368.115 421.829Z" fill="black"/>
<path d="M45.3946 400.089C43.5046 400.439 42.8146 399.899 41.3946 398.939C40.0746 398.059 32.7546 389.109 33.5346 388.219C35.5546 389.539 48.0646 397.399 45.3946 400.079V400.089Z" fill="black"/>
<path d="M255.805 90.9889C254.125 95.1789 247.305 93.0889 252.645 90.5789C252.645 89.7489 250.105 90.5689 249.525 88.9289C247.685 83.7489 256.235 85.589 258.965 86.249L254.225 89.4089C253.975 91.0289 254.255 91.1489 255.805 90.9889Z" fill="black"/>
<path d="M196.464 359.759C195.444 359.409 195.074 355.509 195.004 354.539C194.724 350.579 194.304 345.949 197.674 343.179C200.774 343.079 196.844 358.159 196.474 359.759H196.464Z" fill="black"/>
<path d="M386.164 416.099C381.714 417.909 376.754 418.739 372.084 419.839C375.844 415.239 382.004 413.129 387.904 414.309C388.294 416.559 387.354 415.619 386.164 416.089V416.099Z" fill="black"/>
<path d="M88.1053 189.799C84.6653 187.479 81.3753 182.679 80.6953 178.579C80.4653 177.229 79.8653 176.619 81.3953 175.589C84.1953 179.979 87.3653 184.449 88.1053 189.799Z" fill="black"/>
<path d="M359.175 289.979C357.715 291.619 352.635 293.879 350.735 295.739C349.805 294.589 354.655 287.399 356.275 286.659C359.395 285.219 361.425 287.469 359.175 289.979Z" fill="black"/>
<path d="M225.014 94.879C222.734 88.769 230.424 90.339 234.444 90.199C236.054 91.619 226.994 96.249 225.014 94.879Z" fill="black"/>
<path d="M205.976 96.1288L207.546 98.4788C206.616 100.609 202.286 99.9888 202.816 97.3188L204.386 96.5388C202.876 96.4688 201.576 95.5188 202.026 93.7688C202.616 91.8788 207.496 92.7088 209.136 92.5788L205.986 96.1288H205.976Z" fill="black"/>
<path d="M349.145 340.009L345.735 333.529C345.695 332.749 343.745 327.249 345.595 327.379C349.035 327.609 349.775 337.399 349.145 340.009Z" fill="black"/>
<path d="M270.844 71.599C269.684 67.789 277.424 67.729 279.534 68.059C280.854 69.179 272.454 75.339 270.844 71.599Z" fill="black"/>
<path d="M387.906 422.219L375.256 426.179C373.516 424.439 386.336 417.409 387.906 422.219Z" fill="black"/>
<path d="M361.804 290.989C361.864 294.059 360.034 296.659 358.314 298.979C357.664 299.849 358.324 300.949 356.274 300.469C355.954 296.669 356.924 290.899 361.814 290.989H361.804Z" fill="black"/>
<path d="M160.876 93.339C157.266 92.989 152.846 91.009 150.026 88.789C149.066 88.049 147.866 87.879 148.226 86.249C148.996 85.519 160.236 90.909 160.876 93.339Z" fill="black"/>
<path d="M88.9041 182.689C86.8641 183.179 87.5141 182.019 86.8441 181.209C84.4241 178.249 82.7541 175.729 83.3741 171.619C85.8641 172.099 89.6841 181.699 88.9041 182.689Z" fill="black"/>
<path d="M368.925 427.749C364.875 428.789 361.225 430.289 357.065 428.549C356.875 427.399 358.455 427.449 359.285 427.219C361.795 426.519 367.375 424.859 368.925 427.759V427.749Z" fill="black"/>
<path d="M60.4146 219.849C58.9946 221.619 57.3546 215.429 57.2946 214.639C57.1946 213.579 58.1046 209.769 59.6146 211.159L60.4146 219.849Z" fill="black"/>
<path d="M362.196 305.209C360.136 305.309 360.625 296.609 364.165 297.339C364.265 300.009 364.236 303.179 362.196 305.209Z" fill="black"/>
<path d="M386.325 430.939C384.625 434.099 380.585 433.249 377.625 433.289C379.485 430.549 383.425 429.719 386.325 430.939Z" fill="black"/>
<path d="M158.495 87.8188C155.685 86.2188 150.285 86.3988 149.805 82.2888C150.705 82.5788 160.265 86.0788 158.495 87.8188Z" fill="black"/>
<path d="M73.8643 199.279C72.7143 199.469 72.7742 197.889 72.5342 197.079C71.8642 194.769 70.5942 190.789 72.6942 189.019C73.9142 192.299 74.0243 195.839 73.8643 199.289V199.279Z" fill="black"/>
<path d="M88.885 173.989C85.895 172.369 84.495 169.469 84.955 166.089C87.685 167.479 88.685 171.139 88.885 173.989Z" fill="black"/>
<path d="M231.284 98.089L225.744 98.889V95.739C227.934 95.729 231.404 94.989 231.284 98.089Z" fill="black"/>
</svg>
