<svg width="448" height="408" viewBox="0 0 448 408" fill="none" xmlns="http://www.w3.org/2000/svg">
<path d="M447.303 131.183C447.463 129.993 447.583 128.683 447.443 127.483C446.763 121.653 438.603 120.723 434.503 118.613C432.783 117.733 431.213 115.763 429.623 114.773C425.453 112.153 420.593 111.623 416.373 109.503C418.203 103.333 422.573 95.7328 423.743 89.6228C424.033 88.1228 424.383 86.8428 423.483 85.4628C421.593 82.5328 409.583 82.1328 405.873 81.2628C402.843 80.5628 402.513 79.6528 398.773 80.4428C398.273 80.5428 396.943 81.0928 396.583 81.3828C394.363 83.2128 390.993 103.493 389.863 103.813C381.163 102.853 372.483 101.243 363.753 100.503C357.873 100.003 351.633 99.5528 345.793 99.3828C335.583 99.1028 324.563 99.1328 314.973 102.673L315.943 70.8828C313.283 65.7028 308.463 66.3528 303.523 65.0328C303.363 64.8328 304.493 63.7928 304.723 63.2428C305.663 61.0028 308.433 44.5128 308.373 41.9228C308.123 32.3528 300.943 34.1328 294.583 33.3528C292.113 33.0428 289.503 31.2728 287.173 32.3128C287.293 28.4128 287.003 24.4728 287.143 20.5628C287.293 16.3728 289.073 6.85277 288.013 3.38277C287.633 2.15277 285.873 0.532762 284.593 0.252762C279.573 -0.877238 267.983 2.11278 262.213 2.71278C259.833 2.96278 257.573 1.47277 255.283 4.51277C252.703 7.95277 252.983 24.0128 253.353 28.7928C253.493 30.6428 254.103 32.1728 254.453 33.9528C253.433 34.0428 252.543 33.4228 251.523 33.4528C232.623 34.0028 212.413 39.0328 193.603 41.5228C173.183 44.2128 152.573 44.9028 132.333 48.9428C127.243 49.9528 110.853 52.6428 109.153 57.9228C108.123 61.1328 111.403 69.5228 110.463 70.9728C100.383 75.5928 80.2235 74.1128 80.5535 89.2928C80.7735 99.5328 84.1835 113.023 85.4635 123.683C87.2535 138.563 88.3235 153.513 89.8335 168.403C90.0935 170.943 92.6335 185.293 92.2935 186.123C92.1735 186.433 91.1135 187.363 90.9235 187.223C87.7435 181.663 86.4635 173.003 83.3935 167.753C82.3135 165.903 80.9035 164.773 78.6735 164.833C76.1235 164.913 65.6435 170.833 63.6535 172.763C62.1135 174.253 59.8335 177.583 60.5135 179.733L72.9335 206.863C67.9435 207.563 63.2635 211.683 59.1335 214.603C47.6135 222.713 35.8935 232.043 24.7135 240.703C18.2435 245.713 12.7735 251.183 5.84346 255.093C1.45346 257.583 0.0134673 260.383 0.413467 265.523C0.923467 272.173 10.0835 280.133 14.2735 285.463C40.6935 319.063 58.7935 361.213 84.7135 396.073C87.4335 399.743 95.5335 412.593 100.123 405.063C100.543 404.363 100.673 402.843 100.793 402.743C101.093 402.473 104.603 402.793 105.783 402.553C109.453 401.813 119.483 394.763 123.613 392.573C145.013 381.243 166.543 370.123 187.943 358.763C195.863 354.553 217.033 345.623 222.023 339.413C225.213 335.443 225.473 327.453 224.473 322.503C227.403 321.653 230.643 322.313 233.443 321.923C249.143 319.723 264.613 313.603 279.953 311.193C283.503 310.633 293.883 310.603 296.093 309.343C299.143 307.603 297.843 298.633 298.043 295.473C298.243 292.313 298.833 290.433 301.073 288.133C302.153 287.863 302.993 290.753 304.083 291.653C305.343 292.693 307.093 293.123 308.703 293.093C327.593 292.703 346.433 289.103 365.343 288.633C368.083 288.513 368.673 286.593 370.293 284.913C373.123 287.543 376.243 287.733 379.823 286.763L417.513 197.383L418.363 196.553C422.263 196.373 427.843 199.813 431.483 198.263C433.783 197.283 432.803 195.753 433.563 194.343C435.423 190.883 437.453 188.293 438.733 184.243C442.483 172.313 438.753 175.123 430.243 172.513C429.623 172.323 429.293 172.903 429.443 171.693L447.303 131.183ZM396.033 97.8928C396.073 97.7628 396.103 97.5928 396.153 97.4028C396.173 97.3328 396.183 97.2528 396.203 97.1728C396.243 97.0128 396.273 96.8428 396.313 96.6628C396.343 96.5128 396.383 96.3528 396.413 96.1928C396.623 95.2128 396.893 93.9628 397.203 92.6328C397.263 92.3828 397.323 92.1228 397.383 91.8628C397.423 91.6728 397.473 91.4728 397.523 91.2728L397.673 90.6728C397.973 89.4728 398.313 88.2828 398.673 87.2128C398.743 86.9828 398.823 86.7628 398.903 86.5528C398.983 86.3328 399.063 86.1228 399.143 85.9228C399.193 85.7728 399.253 85.6328 399.313 85.5028C399.383 85.3328 399.453 85.1828 399.523 85.0328C399.643 84.7828 399.763 84.5628 399.883 84.3628C399.923 84.2828 399.973 84.2128 400.013 84.1428C400.153 83.9228 400.293 83.7328 400.433 83.5828C400.483 83.5128 400.543 83.4628 400.603 83.4128C400.643 83.3728 400.673 83.3428 400.713 83.3228H400.723C400.773 83.2628 400.833 83.2228 400.893 83.1928C400.973 83.1428 401.053 83.1128 401.133 83.0928C401.213 83.0628 401.293 83.0528 401.373 83.0528C404.193 85.1328 401.723 85.8728 400.923 88.0428C399.873 90.8628 399.683 95.1828 398.763 98.4328C398.323 99.9628 396.863 106.013 394.833 105.403C393.003 104.853 395.653 99.3428 396.033 97.8928ZM264.633 7.31276L283.353 5.04277L281.713 54.1328C279.913 54.1028 278.313 53.2028 276.533 53.0528C274.033 52.8328 268.643 53.5928 266.793 52.9728C265.943 52.6828 265.833 51.6228 265.603 50.8928C263.833 36.7428 264.493 22.3728 263.803 8.11278L264.633 7.31276ZM112.173 62.0528C112.523 57.8428 116.593 56.2828 116.563 58.7828C116.553 59.7428 115.263 60.2328 115.013 61.0628C114.433 62.9628 116.503 76.6228 117.623 77.3328C118.203 77.7128 119.103 77.5228 119.783 77.6228L119.813 79.7628C118.143 79.6928 116.643 80.3228 115.503 78.8928C114.333 77.4228 111.983 64.3228 112.173 62.0528ZM104.133 397.693L102.923 397.523C99.8035 392.993 96.6335 388.483 93.6335 383.873C75.6035 356.143 60.7135 325.593 42.6335 298.003C33.4935 284.053 22.6035 271.243 13.8035 257.053L14.2235 255.573L16.5135 253.783C31.1435 274.023 47.4135 293.003 60.9535 314.033C69.1735 326.823 77.3935 340.593 85.0135 353.773C91.7135 365.333 97.9435 379.493 105.193 390.313C106.323 392.003 107.813 394.583 109.993 394.503L104.133 397.693ZM218.383 335.743C217.733 337.933 204.213 345.073 201.403 346.593C194.853 350.123 187.973 353.093 181.403 356.573C157.943 368.993 134.563 381.573 111.093 393.953C112.813 389.883 109.943 389.523 107.933 386.483C101.413 376.643 95.9435 364.193 89.9235 353.773C78.3635 333.753 65.6735 312.033 52.1135 293.413C41.6935 279.103 29.6335 265.713 20.0935 250.823L74.2935 209.603C77.4735 212.793 78.3735 219.593 84.2335 217.343C85.9835 216.673 95.9335 210.563 97.4135 209.273C98.6135 208.233 99.8235 206.813 99.5435 205.073C99.2935 203.453 97.8435 203.403 97.4835 202.613C97.2935 202.193 95.6135 196.733 95.8235 196.503C96.5235 196.523 97.1935 196.363 97.8335 196.073C120.203 185.723 143.053 176.193 167.233 170.863C169.143 177.073 172.043 182.993 174.333 189.123C184.703 216.853 192.083 247.033 200.893 275.463C205.763 291.193 213.593 309.553 217.143 325.193C217.473 326.633 218.653 334.813 218.383 335.743ZM294.253 305.043C273.983 304.973 255.463 314.543 235.383 315.953C235.613 313.043 235.783 300.703 238.483 299.693C256.933 297.663 275.503 295.813 293.423 290.853C294.263 291.143 293.163 292.093 293.163 292.223C293.163 295.073 292.843 298.803 293.163 301.503C293.233 302.073 294.613 304.713 294.253 305.043ZM296.453 243.153C296.063 252.753 295.023 262.473 294.773 272.023C294.703 274.713 294.163 280.783 294.403 282.893C294.523 283.933 295.553 284.493 295.883 285.403C284.043 287.883 272.133 290.813 260.113 292.433C250.313 293.753 237.793 295.283 228.013 295.763C225.503 295.893 222.963 295.673 220.443 295.803L205.393 239.593C209.863 240.063 214.013 241.953 218.623 241.103C220.023 240.843 226.423 237.103 225.023 235.773C217.973 235.683 211.173 233.993 204.273 232.803L199.953 210.683C209.813 213.073 219.783 211.433 229.383 208.773C233.613 207.593 237.863 205.583 242.123 204.613C247.233 203.443 252.133 203.553 257.283 202.333C258.943 201.933 261.713 201.743 262.633 200.323C259.413 199.583 256.253 197.633 252.953 197.183C243.763 195.943 235.243 200.543 226.773 202.893C217.513 205.453 208.173 206.203 198.713 204.143L189.043 167.593C199.143 166.943 211.233 166.473 220.813 163.103C225.223 161.543 228.423 158.923 233.533 158.383C240.323 157.673 249.133 159.963 255.153 158.733C257.543 158.253 260.423 155.273 260.993 152.863C258.873 153.253 256.683 152.503 254.733 152.423C246.023 152.073 235.753 150.793 227.323 153.253C223.233 154.443 219.543 156.903 215.213 158.053C205.393 160.643 195.373 160.333 185.503 161.593C172.083 163.323 159.513 166.603 145.713 165.943C144.053 165.863 142.093 164.843 140.493 165.103C137.513 165.583 136.873 169.153 139.233 170.793C140.433 171.633 142.523 171.373 143.253 172.493L111.383 184.493L110.243 181.793L100.733 96.1428C105.983 95.4128 110.903 92.6428 116.123 91.0828C162.673 77.1228 239.333 68.5828 287.373 73.8428C289.383 74.0628 302.723 76.2128 303.273 77.0128L296.453 243.153ZM301.883 283.223L298.613 283.773C298.263 281.793 299.113 279.933 299.183 278.063C301.603 215.303 304.573 152.593 307.353 89.8828C307.493 86.8628 307.053 83.5428 307.333 80.5828C307.583 77.9428 307.953 77.8928 310.603 78.1328L301.883 283.223ZM290.633 70.0328C242.353 63.6928 161.343 72.9828 114.363 87.1328C109.763 88.5228 104.073 90.2428 100.453 93.4028L99.8235 90.3728L100.883 89.4728C125.373 78.8828 151.503 72.2328 177.953 68.4028C221.823 62.0628 267.683 62.9628 311.113 71.6228L311.153 73.7728C304.243 73.2728 297.663 70.9528 290.633 70.0328ZM406.993 208.133C398.703 227.223 389.213 247.973 382.383 267.503C381.213 270.863 381.253 274.703 378.863 278.163C376.573 281.473 373.713 278.043 370.573 277.763C370.513 274.253 374.673 275.763 376.193 273.253C382.823 251.033 392.233 229.853 401.543 208.673C403.663 203.863 406.863 198.953 407.643 193.773L412.543 194.863C413.303 195.653 407.783 206.303 406.993 208.133ZM363.763 281.053C361.183 283.583 335.123 283.493 329.933 283.753C327.743 283.853 314.013 285.443 313.333 284.863C314.583 280.303 314.513 275.633 314.443 270.933C314.423 269.643 313.863 268.443 313.853 267.153C313.753 256.703 313.973 246.223 313.883 235.773C316.033 236.583 317.543 235.543 319.903 236.013C322.973 236.623 325.753 239.973 329.433 240.163C330.733 240.223 340.023 238.623 340.033 237.683C337.103 235.963 333.553 235.593 330.403 234.233C324.943 231.873 321.223 227.733 314.423 229.773L316.053 210.133C319.233 210.493 322.283 209.043 325.473 209.713C327.823 210.213 331.123 213.493 333.493 214.783C343.063 219.973 348.043 214.933 357.233 215.573C361.293 215.853 365.253 218.283 369.473 217.773C368.433 210.683 361.353 208.893 355.013 209.013C350.263 209.103 344.503 211.413 339.803 210.643C335.933 210.023 331.743 204.843 327.203 203.623C323.213 202.543 320.443 203.083 316.603 204.133L321.033 175.293C325.153 174.373 326.143 179.703 328.653 181.993C336.263 188.943 347.483 182.323 356.133 181.783C360.293 181.523 363.793 182.763 367.843 182.863C365.943 167.263 344.243 180.453 334.983 178.383C331.133 177.523 328.793 166.723 322.053 168.683L325.053 146.313C331.383 141.473 336.703 148.233 342.403 150.773C354.403 156.113 361.943 151.423 373.573 151.773C375.483 151.823 377.393 151.743 379.293 151.773C376.133 139.843 362.363 147.583 354.033 147.363C342.663 147.063 337.063 135.783 325.873 138.673L329.933 110.833C330.263 110.323 336.203 108.583 337.283 108.373C356.423 104.663 392.823 113.603 412.443 118.323C417.203 119.473 421.893 121.213 426.723 121.773L363.763 281.053ZM424.483 170.533C423.903 172.263 418.203 170.853 418.023 170.003C424.003 154.783 432.313 140.183 435.443 123.953C435.853 123.563 441.953 127.133 442.263 127.773C442.563 128.363 442.633 128.963 442.513 129.613L424.483 170.533Z" fill="black"/>
<path d="M289.534 114.593C280.094 121.773 260.234 118.823 248.744 119.593C234.404 120.553 223.384 127.173 208.544 124.893C196.164 122.993 192.624 117.563 179.084 122.443C166.334 127.053 156.594 133.873 141.874 132.703C137.124 132.323 130.754 129.783 137.114 125.683C146.144 127.153 154.014 125.683 162.464 122.723C173.314 118.923 180.074 112.943 192.524 114.203C198.994 114.853 205.394 118.483 212.224 119.033C222.044 119.833 230.634 115.753 240.174 114.293C251.024 112.633 263.664 112.973 274.874 112.473C280.094 112.243 285.254 112.843 290.434 113.043C290.654 114.023 290.144 114.123 289.534 114.593Z" fill="black"/>
<path d="M271.623 255.413C270.293 251.973 266.003 241.493 263.983 239.053C262.273 236.993 258.223 236.593 256.763 239.443C254.793 243.283 253.053 256.343 252.373 261.223C251.933 264.313 249.323 273.513 254.193 273.393C258.753 272.783 256.743 260.263 258.353 259.303L266.943 258.183C268.233 260.663 268.603 267.383 271.843 267.703C277.443 268.233 272.573 257.903 271.623 255.413ZM259.373 253.773C259.103 253.403 260.233 247.413 260.463 246.403C260.653 245.563 260.093 245.453 261.533 245.593L264.263 252.673C262.533 252.523 260.893 252.993 259.373 253.773Z" fill="black"/>
<path d="M278.484 241.823C277.664 243.013 282.204 251.113 277.084 251.093C273.734 251.093 273.714 245.343 272.944 242.913L267.904 242.363C265.524 239.423 268.214 237.183 271.364 237.403C268.744 228.673 276.214 227.633 276.824 236.303C286.284 233.633 288.814 240.853 278.484 241.823Z" fill="black"/>
<path d="M140.164 210.593C136.224 213.013 130.734 214.363 126.534 216.583C110.814 224.873 99.954 240.223 82.564 247.863C77.214 250.223 64.634 252.863 61.474 257.313C60.074 259.293 59.974 264.043 56.044 262.223C51.854 260.283 55.074 254.433 57.404 252.143C63.174 246.453 73.164 245.133 80.384 241.863C97.484 234.133 108.704 218.373 125.064 210.213C131.704 206.903 138.984 203.943 146.524 204.133C147.394 204.913 140.944 210.113 140.164 210.593Z" fill="black"/>
<path d="M194.492 300.143C191.382 304.173 186.932 307.783 181.672 308.313C178.042 308.673 173.952 307.953 170.292 308.373C153.902 310.263 147.292 335.603 129.292 337.713C125.692 338.133 117.062 336.823 114.612 338.843C113.512 339.753 113.262 342.163 111.792 342.593C106.632 344.103 106.842 337.073 110.352 334.033C115.312 329.753 121.112 332.193 126.562 331.703C139.632 330.513 146.172 316.013 155.232 308.583C167.952 298.143 180.002 303.933 194.492 300.143Z" fill="black"/>
<path d="M170.344 268.083C164.274 272.263 157.784 272.613 151.444 275.323C136.244 281.823 127.984 302.193 111.844 303.883C106.614 304.433 98.7137 302.613 94.4537 306.123C92.8437 307.463 92.5837 309.853 90.1037 310.003C85.4737 310.303 86.6737 305.153 88.7537 302.603C94.2937 295.813 104.534 298.203 111.914 297.413C120.894 296.443 130.464 282.743 137.254 276.943C140.924 273.813 151.994 266.863 156.604 266.863H171.054C171.344 268.173 170.824 267.743 170.344 268.083Z" fill="black"/>
<path d="M157.064 244.403C152.824 248.073 145.184 251.133 140.244 254.303C126.784 262.943 120.404 270.203 103.694 274.463C97.5138 276.033 89.2238 276.133 84.1038 279.953C80.9038 282.343 78.3138 289.733 74.4238 284.163C74.4938 276.853 82.9838 272.543 89.1738 270.843C102.534 267.163 110.374 267.253 122.824 259.243C133.964 252.073 143.014 240.783 157.964 242.863C158.204 243.883 157.624 243.923 157.064 244.403Z" fill="black"/>
</svg>
