<svg width="108" height="21" viewBox="0 0 108 21" fill="none" xmlns="http://www.w3.org/2000/svg">
<g clip-path="url(#clip0_332_685)">
<path d="M20.4585 0.421875H0.458496V20.4219H20.4585V0.421875Z" fill="white"/>
<path d="M42.125 0.421875H22.125V20.4219H42.125V0.421875Z" fill="white"/>
<path d="M63.792 0.421875H43.792V20.4219H63.792V0.421875Z" fill="white"/>
<path d="M85.4585 0.421875H65.4585V20.4219H85.4585V0.421875Z" fill="white"/>
<path d="M107.125 0.421875H87.125V20.4219H107.125V0.421875Z" fill="url(#paint0_linear_332_685)"/>
<path d="M10.458 13.9008L13.4997 13.13L14.7705 17.0466L10.458 13.9008ZM17.458 8.8383H12.1038L10.458 3.79663L8.81217 8.8383H3.45801L7.79134 11.9633L6.14551 17.005L10.4788 13.88L13.1455 11.9633L17.458 8.8383Z" fill="#2B2B2B"/>
<path d="M32.125 13.9008L35.1667 13.13L36.4375 17.0466L32.125 13.9008ZM39.125 8.8383H33.7708L32.125 3.79663L30.4792 8.8383H25.125L29.4583 11.9633L27.8125 17.005L32.1458 13.88L34.8125 11.9633L39.125 8.8383Z" fill="#2B2B2B"/>
<path d="M53.7915 13.9008L56.8332 13.13L58.104 17.0466L53.7915 13.9008ZM60.7915 8.8383H55.4373L53.7915 3.79663L52.1457 8.8383H46.7915L51.1248 11.9633L49.479 17.005L53.8123 13.88L56.479 11.9633L60.7915 8.8383Z" fill="#2B2B2B"/>
<path d="M75.458 13.9008L78.4997 13.13L79.7705 17.0466L75.458 13.9008ZM82.458 8.8383H77.1038L75.458 3.79663L73.8122 8.8383H68.458L72.7913 11.9633L71.1455 17.005L75.4788 13.88L78.1455 11.9633L82.458 8.8383Z" fill="#2B2B2B"/>
<path d="M97.125 13.9008L100.167 13.13L101.438 17.0466L97.125 13.9008ZM104.125 8.8383H98.7708L97.125 3.79663L95.4792 8.8383H90.125L94.4583 11.9633L92.8125 17.005L97.1458 13.88L99.8125 11.9633L104.125 8.8383Z" fill="#2B2B2B"/>
</g>
<defs>
<linearGradient id="paint0_linear_332_685" x1="87.125" y1="10.4219" x2="107.125" y2="10.4219" gradientUnits="userSpaceOnUse">
<stop stop-color="white"/>
<stop offset="0.5" stop-color="white"/>
<stop offset="0.5001" stop-color="#FF9398"/>
<stop offset="0.5002" stop-color="#D9D9D9"/>
<stop offset="0.9998" stop-color="#D9D9D9"/>
<stop offset="0.9999" stop-color="#FF9398"/>
<stop offset="1" stop-color="#D9D9D9"/>
</linearGradient>
<clipPath id="clip0_332_685">
<rect width="106.667" height="20" fill="white" transform="translate(0.458496 0.421875)"/>
</clipPath>
</defs>
</svg>
